<svg width="397" height="642" viewBox="0 0 397 642" fill="none" xmlns="http://www.w3.org/2000/svg">
<path fill-rule="evenodd" clip-rule="evenodd" d="M30 0C13.4315 0 0 13.4315 0 30V523.674C0 540.242 13.4315 553.674 30 553.674H121.308C137.876 553.674 151.308 567.105 151.308 583.674V608.993C151.308 625.561 164.739 638.993 181.308 638.993H366.42C382.988 638.993 396.42 625.561 396.42 608.993V30C396.42 13.4315 382.988 0 366.42 0H30Z" fill="#E8EEEE"/>
<rect x="10.4199" y="565.952" width="97.0322" height="75.8953" rx="37.9476" fill="#E8E8E8"/>
<path d="M45.4224 603.081H72.4498M72.4498 603.081L61.1201 591.751M72.4498 603.081L61.1201 614.41" stroke="#151515" stroke-width="2" stroke-linecap="round"/>
</svg>
