<svg width="20" height="33" viewBox="0 0 20 33" fill="none" xmlns="http://www.w3.org/2000/svg">
<g id="Group 4819">
<path id="Vector" fill-rule="evenodd" clip-rule="evenodd" d="M14.3276 0.668949C15.4595 0.948097 16.4935 1.53132 17.318 2.35556C18.1425 3.17981 18.726 4.21372 19.0054 5.34555C19.6917 8.0988 19.6861 10.9791 18.9891 13.7296C18.8639 14.2367 18.6786 14.7188 18.4432 15.1683H18.4457L10.3158 32.0717L1.82408 15.2146C1.57305 14.7452 1.38126 14.2463 1.25312 13.7296C0.561461 10.9777 0.561461 8.09745 1.25312 5.34555C1.53131 4.21245 2.11427 3.17708 2.93885 2.35162C3.76342 1.52616 4.79817 0.942092 5.93097 0.662689C7.30414 0.319809 8.71394 0.145319 10.1293 0.143066C11.5204 0.143066 12.9365 0.315857 14.3276 0.668949ZM13.3372 14.4371C13.7476 14.3352 14.1225 14.1234 14.4216 13.8245C14.7208 13.5256 14.9328 13.1508 15.035 12.7405C15.5609 10.6031 15.5609 8.46454 15.035 6.3272C14.9327 5.91691 14.7206 5.54222 14.4215 5.24333C14.1224 4.94443 13.7475 4.73262 13.3372 4.6306C11.232 4.09611 9.02658 4.09611 6.92138 4.6306C6.51096 4.73249 6.13604 4.94426 5.83691 5.24318C5.53778 5.54209 5.32573 5.91685 5.22353 6.3272C4.68883 8.43152 4.68883 10.6361 5.22353 12.7405C5.32573 13.1508 5.53778 13.5256 5.83691 13.8245C6.13604 14.1234 6.51096 14.3352 6.92138 14.4371C9.02657 14.9716 11.232 14.9716 13.3372 14.4371Z" fill="#026C82"/>
</g>
</svg>
