<svg width="23" height="23" viewBox="0 0 23 23" fill="none" xmlns="http://www.w3.org/2000/svg">
<g id="Group 1924">
<path id="Vector" d="M21.5731 16.1934L17.1487 13.9811C16.941 13.8775 16.706 13.8418 16.4769 13.8791C16.2478 13.9164 16.0363 14.0249 15.8722 14.1891L14.0195 16.0418C11.3571 15.6138 7.16156 11.4194 6.73459 8.75694L8.58734 6.9042C8.75154 6.74015 8.85998 6.52861 8.89731 6.29953C8.93463 6.07044 8.89894 5.83542 8.79529 5.62774L6.58306 1.20327C6.51064 1.05824 6.40723 0.930906 6.28014 0.830271C6.15306 0.729635 6.00541 0.658163 5.84764 0.620911C5.68988 0.583659 5.52585 0.581539 5.36718 0.614701C5.2085 0.647863 5.05905 0.715496 4.92941 0.812813L0.504947 4.13116C0.367571 4.23419 0.256071 4.36779 0.179276 4.52139C0.102481 4.67498 0.0625 4.84434 0.0625 5.01606C0.0625 15.6016 7.17483 22.7139 17.7604 22.7139C17.9321 22.7139 18.1014 22.6739 18.255 22.5971C18.4086 22.5203 18.5422 22.4088 18.6453 22.2715L21.9636 17.847C22.0609 17.7174 22.1286 17.5679 22.1617 17.4092C22.1949 17.2506 22.1928 17.0865 22.1555 16.9288C22.1183 16.771 22.0468 16.6234 21.9461 16.4963C21.8455 16.3692 21.7182 16.2658 21.5731 16.1934Z" fill="#026C82"/>
<path id="Vector_2" d="M12.7784 2.80354C14.6845 2.80588 16.5119 3.56413 17.8597 4.91196C19.2075 6.25979 19.9658 8.08717 19.9681 9.9933C19.9681 10.2867 20.0847 10.568 20.2921 10.7754C20.4995 10.9829 20.7809 11.0994 21.0742 11.0994C21.3676 11.0994 21.6489 10.9829 21.8564 10.7754C22.0638 10.568 22.1803 10.2867 22.1803 9.9933C22.1774 7.50063 21.1859 5.1109 19.4233 3.34832C17.6608 1.58574 15.271 0.594236 12.7784 0.591309C12.485 0.591309 12.2037 0.707845 11.9962 0.915283C11.7888 1.12272 11.6722 1.40406 11.6722 1.69743C11.6722 1.99079 11.7888 2.27213 11.9962 2.47957C12.2037 2.687 12.485 2.80354 12.7784 2.80354Z" fill="#026C82"/>
<path id="Vector_3" d="M12.7784 7.22883C13.5118 7.22883 14.2151 7.52018 14.7337 8.03877C15.2523 8.55736 15.5436 9.26072 15.5436 9.99413C15.5436 10.2875 15.6602 10.5688 15.8676 10.7763C16.0751 10.9837 16.3564 11.1002 16.6498 11.1002C16.9431 11.1002 17.2245 10.9837 17.4319 10.7763C17.6393 10.5688 17.7559 10.2875 17.7559 9.99413C17.7559 8.674 17.2315 7.40795 16.298 6.47448C15.3645 5.54102 14.0985 5.0166 12.7784 5.0166C12.485 5.0166 12.2037 5.13314 11.9962 5.34058C11.7888 5.54801 11.6722 5.82936 11.6722 6.12272C11.6722 6.41608 11.7888 6.69742 11.9962 6.90486C12.2037 7.1123 12.485 7.22883 12.7784 7.22883Z" fill="#026C82"/>
</g>
</svg>
