<svg width="25" height="19" viewBox="0 0 25 19" fill="none" xmlns="http://www.w3.org/2000/svg">
<g id="Group">
<g id="Group_2">
<g id="Group_3">
<path id="Vector" d="M0.0510401 2.54932C0.02552 2.72933 0 2.90934 0 3.08935V16.4401C0 16.5901 0.02552 16.7401 0.0510401 16.8902L7.24769 9.1197L0.0510401 2.54932Z" fill="#026C82"/>
<path id="Vector_2" d="M24.1972 2.54932L17.0261 9.0897L24.2227 16.8602C24.2482 16.7101 24.2482 16.5601 24.2482 16.4101V3.08935C24.2482 2.90934 24.2227 2.72933 24.1972 2.54932Z" fill="#026C82"/>
<path id="Vector_3" d="M13.8314 12.0007C12.8617 12.9007 11.3815 12.9007 10.4117 12.0007L8.88055 10.6206L1.47974 18.6011C1.60734 18.6311 1.73494 18.6611 1.86254 18.6611H22.3296C22.4572 18.6611 22.5848 18.6311 22.7124 18.6011L15.3626 10.6206L13.8314 12.0007Z" fill="#026C82"/>
<path id="Vector_4" d="M12.5828 10.0799L22.6632 0.869357C22.5611 0.839356 22.4846 0.839355 22.3825 0.839355H1.88991C1.78783 0.839355 1.71127 0.839356 1.60919 0.869357L11.6896 10.0799C11.9448 10.3199 12.3021 10.3199 12.5828 10.0799Z" fill="#026C82"/>
</g>
</g>
</g>
</svg>
