<svg width="397" height="333" viewBox="0 0 397 333" fill="none" xmlns="http://www.w3.org/2000/svg">
<path fill-rule="evenodd" clip-rule="evenodd" d="M30 0C13.4315 0 0 13.4315 0 30V214.363C0 230.932 13.4315 244.363 30 244.363H121.308C137.876 244.363 151.308 257.795 151.308 274.363V299.682C151.308 316.251 164.739 329.682 181.308 329.682H366.42C382.988 329.682 396.42 316.251 396.42 299.682V30C396.42 13.4315 382.988 0 366.42 0H30Z" fill="#E8EEEE"/>
<path d="M59.9544 134.173H56.1844V148.135H52.1804V134.173H48.4104V130.793H59.9544V134.173ZM70.2096 130.403C72.9136 130.403 75.1756 131.235 76.9176 132.925C78.5556 134.511 79.6216 136.799 79.6216 139.477C79.6216 141.791 78.7896 144.157 76.9176 145.977C75.3056 147.537 73.1216 148.525 70.2096 148.525C66.9596 148.525 64.7496 147.225 63.4496 145.977C61.7856 144.417 60.7456 142.077 60.7456 139.529C60.7456 137.033 61.8636 134.511 63.4236 132.951C64.5936 131.781 66.7516 130.403 70.2096 130.403ZM70.1836 134.095C68.6756 134.095 67.3236 134.641 66.3876 135.577C65.6336 136.305 64.8536 137.579 64.8536 139.503C64.8536 141.089 65.3736 142.363 66.4396 143.403C67.5576 144.469 68.8056 144.833 70.1576 144.833C71.9256 144.833 73.1736 144.183 74.0056 143.351C74.6816 142.701 75.5136 141.479 75.5136 139.477C75.5136 137.683 74.7856 136.357 74.0056 135.577C73.1476 134.745 71.7696 134.095 70.1836 134.095ZM91.9466 134.173H88.1766V148.135H84.1726V134.173H80.4026V130.793H91.9466V134.173ZM104.452 148.135L103.152 144.859H96.5998L95.2738 148.135H91.1138L98.1078 130.793H101.774L108.612 148.135H104.452ZM97.7698 141.791H102.06L99.9278 135.967L97.7698 141.791ZM112.83 130.793H125.44V148.135H121.436V134.173H116.73V140.127C116.73 143.091 116.366 145.561 114.988 146.965C114.26 147.693 113.064 148.343 111.088 148.343C110.49 148.343 109.97 148.265 109.476 148.135V144.547C109.762 144.651 110.1 144.703 110.464 144.703C111.14 144.703 111.712 144.469 112.05 144.131C112.778 143.403 112.83 141.869 112.83 140.491V130.793ZM129.243 148.135V130.793H133.247V137.553H135.691C137.173 137.553 139.071 137.709 140.449 139.009C141.697 140.179 141.905 141.713 141.905 142.857C141.905 144.001 141.697 145.535 140.501 146.679C139.071 148.031 137.017 148.135 135.561 148.135H129.243ZM133.247 140.777V144.911H135.015C135.717 144.911 136.549 144.833 137.095 144.443C137.407 144.235 137.849 143.741 137.849 142.831C137.849 141.739 137.251 141.271 137.121 141.193C136.835 140.985 136.289 140.777 135.041 140.777H133.247ZM148.481 130.793V137.397H155.397V130.793H159.401V148.135H155.397V140.777H148.481V148.135H144.477V130.793H148.481ZM174.682 148.135L173.382 144.859H166.83L165.504 148.135H161.344L168.338 130.793H172.004L178.842 148.135H174.682ZM168 141.791H172.29L170.158 135.967L168 141.791ZM192.642 130.793V148.135H188.638V141.817H188.118L184.036 148.135H179.408L184.4 141.349C183.412 141.167 182.528 140.699 181.93 140.127C180.682 138.957 180.474 137.475 180.474 136.279C180.474 134.849 180.838 133.575 181.878 132.483C183.282 131.027 185.102 130.793 186.688 130.793H192.642ZM188.638 138.749V134.069H187.702C187.104 134.069 186.064 134.095 185.336 134.693C185.05 134.953 184.582 135.499 184.582 136.435C184.582 137.293 184.946 137.813 185.258 138.099C185.986 138.749 187.078 138.749 187.702 138.749H188.638ZM213.987 148.135L212.687 144.859H206.135L204.809 148.135H200.649L207.643 130.793H211.309L218.147 148.135H213.987ZM207.305 141.791H211.595L209.463 135.967L207.305 141.791ZM222.365 130.793H234.975V148.135H230.971V134.173H226.265V140.127C226.265 143.091 225.901 145.561 224.523 146.965C223.795 147.693 222.599 148.343 220.623 148.343C220.025 148.343 219.505 148.265 219.011 148.135V144.547C219.297 144.651 219.635 144.703 219.999 144.703C220.675 144.703 221.247 144.469 221.585 144.131C222.313 143.403 222.365 141.869 222.365 140.491V130.793ZM247.436 130.403C250.14 130.403 252.402 131.235 254.144 132.925C255.782 134.511 256.848 136.799 256.848 139.477C256.848 141.791 256.016 144.157 254.144 145.977C252.532 147.537 250.348 148.525 247.436 148.525C244.186 148.525 241.976 147.225 240.676 145.977C239.012 144.417 237.972 142.077 237.972 139.529C237.972 137.033 239.09 134.511 240.65 132.951C241.82 131.781 243.978 130.403 247.436 130.403ZM247.41 134.095C245.902 134.095 244.55 134.641 243.614 135.577C242.86 136.305 242.08 137.579 242.08 139.503C242.08 141.089 242.6 142.363 243.666 143.403C244.784 144.469 246.032 144.833 247.384 144.833C249.152 144.833 250.4 144.183 251.232 143.351C251.908 142.701 252.74 141.479 252.74 139.477C252.74 137.683 252.012 136.357 251.232 135.577C250.374 134.745 248.996 134.095 247.41 134.095ZM259.827 130.793H274.413V148.135H270.409V134.173H263.831V148.135H259.827V130.793ZM288.012 130.793V134.173H282.214V137.527H287.726V140.907H282.214V144.755H288.012V148.135H278.21V130.793H288.012ZM291.261 148.135V130.793H295.265V144.755H301.687V130.793H305.691V144.755H308.031V152.035H304.443V148.135H291.261ZM310.177 130.793H314.181V142.129L322.215 130.585H325.751V148.135H321.747V136.773L313.713 148.343H310.177V130.793ZM341.406 130.793V148.135H337.402V141.817H336.882L332.8 148.135H328.172L333.164 141.349C332.176 141.167 331.292 140.699 330.694 140.127C329.446 138.957 329.238 137.475 329.238 136.279C329.238 134.849 329.602 133.575 330.642 132.483C332.046 131.027 333.866 130.793 335.452 130.793H341.406ZM337.402 138.749V134.069H336.466C335.868 134.069 334.828 134.095 334.1 134.693C333.814 134.953 333.346 135.499 333.346 136.435C333.346 137.293 333.71 137.813 334.022 138.099C334.75 138.749 335.842 138.749 336.466 138.749H337.402Z" fill="#151515"/>
<circle cx="77.5131" cy="68.5626" r="29.9068" fill="#026C82"/>
<path d="M69.3181 60.3677L85.7081 76.7576" stroke="white" stroke-width="5" stroke-linecap="round"/>
<path d="M85.708 60.3677L69.3181 76.7576" stroke="white" stroke-width="5" stroke-linecap="round"/>
<rect x="10.4199" y="256.642" width="97.0322" height="75.8953" rx="37.9476" fill="#E8E8E8"/>
<path d="M58.9361 280.257V307.284M58.9361 307.284L47.6063 295.954M58.9361 307.284L70.2658 295.954" stroke="#151515" stroke-width="2" stroke-linecap="round"/>
</svg>
