<svg width="397" height="333" viewBox="0 0 397 333" fill="none" xmlns="http://www.w3.org/2000/svg">
<path fill-rule="evenodd" clip-rule="evenodd" d="M30 0C13.4315 0 0 13.4315 0 30V214.363C0 230.932 13.4315 244.363 30 244.363H121.308C137.876 244.363 151.308 257.795 151.308 274.363V299.682C151.308 316.251 164.739 329.682 181.308 329.682H366.42C382.988 329.682 396.42 316.251 396.42 299.682V30C396.42 13.4315 382.988 0 366.42 0H30Z" fill="#E8EEEE"/>
<path d="M61.5924 148.596L60.2924 145.32H53.7404L52.4144 148.596H48.2544L55.2484 131.254H58.9144L65.7524 148.596H61.5924ZM54.9104 142.252H59.2004L57.0684 136.428L54.9104 142.252ZM69.9707 131.254H82.5807V148.596H78.5767V134.634H73.8707V140.588C73.8707 143.552 73.5067 146.022 72.1287 147.426C71.4007 148.154 70.2047 148.804 68.2287 148.804C67.6307 148.804 67.1107 148.726 66.6167 148.596V145.008C66.9027 145.112 67.2407 145.164 67.6047 145.164C68.2807 145.164 68.8527 144.93 69.1907 144.592C69.9187 143.864 69.9707 142.33 69.9707 140.952V131.254ZM95.0416 130.864C97.7456 130.864 100.008 131.696 101.75 133.386C103.388 134.972 104.454 137.26 104.454 139.938C104.454 142.252 103.622 144.618 101.75 146.438C100.138 147.998 97.9536 148.986 95.0416 148.986C91.7916 148.986 89.5816 147.686 88.2816 146.438C86.6176 144.878 85.5776 142.538 85.5776 139.99C85.5776 137.494 86.6956 134.972 88.2556 133.412C89.4256 132.242 91.5836 130.864 95.0416 130.864ZM95.0156 134.556C93.5076 134.556 92.1556 135.102 91.2196 136.038C90.4656 136.766 89.6856 138.04 89.6856 139.964C89.6856 141.55 90.2056 142.824 91.2716 143.864C92.3896 144.93 93.6376 145.294 94.9896 145.294C96.7576 145.294 98.0056 144.644 98.8376 143.812C99.5136 143.162 100.346 141.94 100.346 139.938C100.346 138.144 99.6176 136.818 98.8376 136.038C97.9796 135.206 96.6016 134.556 95.0156 134.556ZM107.432 131.254H122.018V148.596H118.014V134.634H111.436V148.596H107.432V131.254ZM135.617 131.254V134.634H129.819V137.988H135.331V141.368H129.819V145.216H135.617V148.596H125.815V131.254H135.617ZM138.866 148.596V131.254H142.87V145.216H149.292V131.254H153.296V145.216H155.636V152.496H152.048V148.596H138.866ZM157.782 131.254H161.786V142.59L169.82 131.046H173.356V148.596H169.352V137.234L161.318 148.804H157.782V131.254ZM189.011 131.254V148.596H185.007V142.278H184.487L180.405 148.596H175.777L180.769 141.81C179.781 141.628 178.897 141.16 178.299 140.588C177.051 139.418 176.843 137.936 176.843 136.74C176.843 135.31 177.207 134.036 178.247 132.944C179.651 131.488 181.471 131.254 183.057 131.254H189.011ZM185.007 139.21V134.53H184.071C183.473 134.53 182.433 134.556 181.705 135.154C181.419 135.414 180.951 135.96 180.951 136.896C180.951 137.754 181.315 138.274 181.627 138.56C182.355 139.21 183.447 139.21 184.071 139.21H185.007ZM190.638 151.924L193.498 144.592L196.904 144.774L192.978 152.028L190.638 151.924ZM206.05 131.254H211.354C212.29 131.254 214.422 131.306 215.774 132.58C216.892 133.646 217.022 135.102 217.022 135.856C217.022 136.532 216.918 137.312 216.45 138.066C216.008 138.794 215.41 139.158 214.994 139.34C215.826 139.47 216.762 139.886 217.386 140.51C217.958 141.082 218.504 142.07 218.504 143.604C218.504 145.346 217.828 146.438 217.152 147.114C215.722 148.492 213.642 148.596 212.576 148.596H206.05V131.254ZM210.002 134.374V138.3H210.652C211.198 138.3 212.108 138.222 212.68 137.806C213.044 137.546 213.382 137.026 213.382 136.272C213.382 135.518 213.018 135.05 212.706 134.816C212.134 134.374 211.354 134.374 210.626 134.374H210.002ZM210.002 141.264V145.476H210.964C211.978 145.476 213.2 145.45 213.928 144.774C214.292 144.436 214.5 143.942 214.5 143.318C214.5 142.616 214.214 142.148 213.954 141.914C213.252 141.264 211.9 141.264 211.094 141.264H210.002ZM235.709 131.254H239.713V148.596H235.709V131.254ZM221.487 148.596V131.254H225.491V138.014H227.883C229.365 138.014 231.263 138.17 232.641 139.47C233.889 140.64 234.097 142.174 234.097 143.318C234.097 144.462 233.889 145.996 232.693 147.14C231.263 148.492 229.209 148.596 227.753 148.596H221.487ZM225.491 141.238V145.372H227.259C227.961 145.372 228.793 145.294 229.339 144.904C229.651 144.696 230.093 144.202 230.093 143.292C230.093 142.2 229.495 141.732 229.365 141.654C229.079 141.446 228.533 141.238 227.285 141.238H225.491ZM244.931 135.882L243.163 132.814C243.969 132.164 244.671 131.8 245.529 131.488C246.621 131.072 247.531 130.864 248.909 130.864C250.443 130.864 252.237 131.15 253.563 132.45C254.551 133.412 254.889 134.582 254.889 135.856C254.889 136.688 254.707 137.416 254.213 138.118C253.693 138.846 253.069 139.184 252.549 139.392C253.277 139.6 254.083 139.99 254.681 140.614C255.175 141.108 255.851 142.122 255.851 143.708C255.851 145.138 255.279 146.334 254.447 147.192C252.913 148.752 250.833 148.986 249.221 148.986C247.791 148.986 246.387 148.83 245.061 148.232C244.151 147.842 243.189 147.166 242.383 146.412L244.619 143.474C245.087 144.02 245.737 144.566 246.387 144.904C247.141 145.294 247.973 145.45 248.753 145.45C249.507 145.45 250.261 145.268 250.755 144.93C251.223 144.592 251.587 144.046 251.587 143.318C251.587 142.668 251.275 142.2 250.963 141.94C250.495 141.576 249.637 141.29 247.661 141.29H247.011V138.066H247.609C248.857 138.066 249.871 137.936 250.469 137.39C250.729 137.156 250.963 136.766 250.963 136.22C250.963 135.648 250.677 135.18 250.261 134.868C249.819 134.53 249.091 134.4 248.441 134.4C247.713 134.4 247.037 134.582 246.491 134.842C245.971 135.076 245.373 135.492 244.931 135.882ZM258.837 131.254H264.141C265.077 131.254 267.209 131.306 268.561 132.58C269.679 133.646 269.809 135.102 269.809 135.856C269.809 136.532 269.705 137.312 269.237 138.066C268.795 138.794 268.197 139.158 267.781 139.34C268.613 139.47 269.549 139.886 270.173 140.51C270.745 141.082 271.291 142.07 271.291 143.604C271.291 145.346 270.615 146.438 269.939 147.114C268.509 148.492 266.429 148.596 265.363 148.596H258.837V131.254ZM262.789 134.374V138.3H263.439C263.985 138.3 264.895 138.222 265.467 137.806C265.831 137.546 266.169 137.026 266.169 136.272C266.169 135.518 265.805 135.05 265.493 134.816C264.921 134.374 264.141 134.374 263.413 134.374H262.789ZM262.789 141.264V145.476H263.751C264.765 145.476 265.987 145.45 266.715 144.774C267.079 144.436 267.287 143.942 267.287 143.318C267.287 142.616 267.001 142.148 266.741 141.914C266.039 141.264 264.687 141.264 263.881 141.264H262.789ZM285.766 148.596L284.466 145.32H277.914L276.588 148.596H272.428L279.422 131.254H283.088L289.926 148.596H285.766ZM279.084 142.252H283.374L281.242 136.428L279.084 142.252ZM295.874 131.254V137.858H302.79V131.254H306.794V148.596H302.79V141.238H295.874V148.596H291.87V131.254H295.874ZM314.587 131.254V137.858H321.503V131.254H325.507V148.596H321.503V141.238H314.587V148.596H310.583V131.254H314.587ZM340.788 148.596L339.488 145.32H332.936L331.61 148.596H327.45L334.444 131.254H338.11L344.948 148.596H340.788ZM334.106 142.252H338.396L336.264 136.428L334.106 142.252ZM358.747 131.254V148.596H354.743V142.278H354.223L350.141 148.596H345.513L350.505 141.81C349.517 141.628 348.633 141.16 348.035 140.588C346.787 139.418 346.579 137.936 346.579 136.74C346.579 135.31 346.943 134.036 347.983 132.944C349.387 131.488 351.207 131.254 352.793 131.254H358.747ZM354.743 139.21V134.53H353.807C353.209 134.53 352.169 134.556 351.441 135.154C351.155 135.414 350.687 135.96 350.687 136.896C350.687 137.754 351.051 138.274 351.363 138.56C352.091 139.21 353.183 139.21 353.807 139.21H354.743ZM48.4624 190.596L54.8324 181.392L49.4504 173.254H54.2604L57.1204 178.194L59.9804 173.254H64.7904L59.4084 181.392L65.7784 190.596H60.9684L57.1204 184.59L53.2724 190.596H48.4624ZM67.9246 173.254H71.9286V184.59L79.9626 173.046H83.4986V190.596H79.4946V179.234L71.4606 190.804H67.9246V173.254ZM90.4957 190.596H86.4917L89.2737 173.254H92.6017L96.9177 183.628L101.234 173.254H104.562L107.344 190.596H103.34L101.962 180.248L97.6197 190.596H96.2157L91.8737 180.248L90.4957 190.596ZM110.327 173.254H114.331V184.59L122.365 173.046H125.901V190.596H121.897V179.234L113.863 190.804H110.327V173.254ZM138.358 172.864C141.062 172.864 143.324 173.696 145.066 175.386C146.704 176.972 147.77 179.26 147.77 181.938C147.77 184.252 146.938 186.618 145.066 188.438C143.454 189.998 141.27 190.986 138.358 190.986C135.108 190.986 132.898 189.686 131.598 188.438C129.934 186.878 128.894 184.538 128.894 181.99C128.894 179.494 130.012 176.972 131.572 175.412C132.742 174.242 134.9 172.864 138.358 172.864ZM138.332 176.556C136.824 176.556 135.472 177.102 134.536 178.038C133.782 178.766 133.002 180.04 133.002 181.964C133.002 183.55 133.522 184.824 134.588 185.864C135.706 186.93 136.954 187.294 138.306 187.294C140.074 187.294 141.322 186.644 142.154 185.812C142.83 185.162 143.662 183.94 143.662 181.938C143.662 180.144 142.934 178.818 142.154 178.038C141.296 177.206 139.918 176.556 138.332 176.556ZM160.095 176.634H156.325V190.596H152.321V176.634H148.551V173.254H160.095V176.634ZM172.002 173.254V176.634H166.204V179.988H171.716V183.368H166.204V187.216H172.002V190.596H162.2V173.254H172.002ZM175.251 173.254H181.361C182.869 173.254 184.533 173.462 185.911 174.684C187.393 175.984 187.601 177.7 187.601 178.896C187.601 181.08 186.769 182.302 186.119 182.978C184.741 184.382 182.921 184.512 181.699 184.512H179.255V190.596H175.251V173.254ZM179.255 176.53V181.236H180.685C181.231 181.236 182.193 181.21 182.843 180.586C183.207 180.222 183.493 179.624 183.493 178.87C183.493 178.142 183.233 177.544 182.843 177.18C182.245 176.608 181.387 176.53 180.607 176.53H179.255ZM200.505 190.596L199.205 187.32H192.653L191.327 190.596H187.167L194.161 173.254H197.827L204.665 190.596H200.505ZM193.823 184.252H198.113L195.981 178.428L193.823 184.252ZM206.608 173.254H221.194V190.596H217.19V176.634H210.612V190.596H206.608V173.254ZM224.991 173.254H228.995V184.59L237.029 173.046H240.565V190.596H236.561V179.234L228.527 190.804H224.991V173.254ZM254.166 173.254V176.634H248.368V179.988H253.88V183.368H248.368V187.216H254.166V190.596H244.364V173.254H254.166ZM257.415 173.254H261.419V184.59L269.453 173.046H272.989V190.596H268.985V179.234L260.951 190.804H257.415V173.254ZM267.607 167.534L270.363 168.704C269.921 169.744 269.167 170.55 268.387 171.044C267.347 171.668 266.229 171.772 265.189 171.772C264.175 171.772 263.057 171.668 262.017 171.044C261.237 170.55 260.483 169.744 260.041 168.704L262.797 167.534C262.979 168.002 263.317 168.522 263.655 168.782C264.045 169.068 264.643 169.224 265.241 169.224C265.631 169.224 266.255 169.172 266.775 168.782C267.165 168.47 267.477 167.95 267.607 167.534Z" fill="#151515"/>
<circle cx="77.5131" cy="68.5626" r="29.9068" fill="#026C82"/>
<path d="M69.3181 60.3677L85.7081 76.7576" stroke="white" stroke-width="5" stroke-linecap="round"/>
<path d="M85.708 60.3677L69.3181 76.7576" stroke="white" stroke-width="5" stroke-linecap="round"/>
<rect x="10.4199" y="256.642" width="97.0322" height="75.8953" rx="37.9476" fill="#E8E8E8"/>
<path d="M58.9361 280.257V307.284M58.9361 307.284L47.6063 295.954M58.9361 307.284L70.2658 295.954" stroke="#151515" stroke-width="2" stroke-linecap="round"/>
</svg>
