<svg width="397" height="333" viewBox="0 0 397 333" fill="none" xmlns="http://www.w3.org/2000/svg">
<path fill-rule="evenodd" clip-rule="evenodd" d="M30 0C13.4315 0 0 13.4315 0 30V214.363C0 230.932 13.4315 244.363 30 244.363H121.308C137.876 244.363 151.308 257.795 151.308 274.363V299.682C151.308 316.251 164.739 329.682 181.308 329.682H366.42C382.988 329.682 396.42 316.251 396.42 299.682V30C396.42 13.4315 382.988 0 366.42 0H30Z" fill="#E8EEEE"/>
<path d="M62.0123 148.596L60.7123 145.32H54.1603L52.8343 148.596H48.6743L55.6683 131.254H59.3343L66.1723 148.596H62.0123ZM55.3303 142.252H59.6203L57.4883 136.428L55.3303 142.252ZM65.5095 131.254H69.9815L73.6215 139.262L77.1055 131.254H81.4215L73.4915 148.596H69.1755L71.6975 143.604L65.5095 131.254ZM93.8899 134.634H90.1199V148.596H86.1159V134.634H82.3459V131.254H93.8899V134.634ZM104.145 130.864C106.849 130.864 109.111 131.696 110.853 133.386C112.491 134.972 113.557 137.26 113.557 139.938C113.557 142.252 112.725 144.618 110.853 146.438C109.241 147.998 107.057 148.986 104.145 148.986C100.895 148.986 98.6851 147.686 97.3851 146.438C95.7211 144.878 94.6811 142.538 94.6811 139.99C94.6811 137.494 95.7991 134.972 97.3591 133.412C98.5291 132.242 100.687 130.864 104.145 130.864ZM104.119 134.556C102.611 134.556 101.259 135.102 100.323 136.038C99.5691 136.766 98.7891 138.04 98.7891 139.964C98.7891 141.55 99.3091 142.824 100.375 143.864C101.493 144.93 102.741 145.294 104.093 145.294C105.861 145.294 107.109 144.644 107.941 143.812C108.617 143.162 109.449 141.94 109.449 139.938C109.449 138.144 108.721 136.818 107.941 136.038C107.083 135.206 105.705 134.556 104.119 134.556ZM116.536 131.254H120.54V142.59L128.574 131.046H132.11V148.596H128.106V137.234L120.072 148.804H116.536V131.254ZM139.107 148.596H135.103L137.885 131.254H141.213L145.529 141.628L149.845 131.254H153.173L155.955 148.596H151.951L150.573 138.248L146.231 148.596H144.827L140.485 138.248L139.107 148.596ZM162.136 148.596H158.132L160.914 131.254H164.242L168.558 141.628L172.874 131.254H176.202L178.984 148.596H174.98L173.602 138.248L169.26 148.596H167.856L163.514 138.248L162.136 148.596ZM180.174 131.254H184.646L188.286 139.262L191.77 131.254H196.086L188.156 148.596H183.84L186.362 143.604L180.174 131.254ZM202.145 131.254V137.858H209.061V131.254H213.065V148.596H209.061V141.238H202.145V148.596H198.141V131.254H202.145ZM220.858 131.254V137.858H227.774V131.254H231.778V148.596H227.774V141.238H220.858V148.596H216.854V131.254H220.858ZM247.059 148.596L245.759 145.32H239.207L237.881 148.596H233.721L240.715 131.254H244.381L251.219 148.596H247.059ZM240.377 142.252H244.667L242.535 136.428L240.377 142.252ZM265.019 131.254V148.596H261.015V142.278H260.495L256.413 148.596H251.785L256.777 141.81C255.789 141.628 254.905 141.16 254.307 140.588C253.059 139.418 252.851 137.936 252.851 136.74C252.851 135.31 253.215 134.036 254.255 132.944C255.659 131.488 257.479 131.254 259.065 131.254H265.019ZM261.015 139.21V134.53H260.079C259.481 134.53 258.441 134.556 257.713 135.154C257.427 135.414 256.959 135.96 256.959 136.896C256.959 137.754 257.323 138.274 257.635 138.56C258.363 139.21 259.455 139.21 260.079 139.21H261.015ZM62.0123 190.596L60.7123 187.32H54.1603L52.8343 190.596H48.6743L55.6683 173.254H59.3343L66.1723 190.596H62.0123ZM55.3303 184.252H59.6203L57.4883 178.428L55.3303 184.252ZM70.3906 173.254H83.0006V190.596H78.9966V176.634H74.2906V182.588C74.2906 185.552 73.9266 188.022 72.5486 189.426C71.8206 190.154 70.6246 190.804 68.6486 190.804C68.0506 190.804 67.5306 190.726 67.0366 190.596V187.008C67.3226 187.112 67.6606 187.164 68.0246 187.164C68.7006 187.164 69.2726 186.93 69.6106 186.592C70.3386 185.864 70.3906 184.33 70.3906 182.952V173.254ZM95.4615 172.864C98.1655 172.864 100.428 173.696 102.17 175.386C103.808 176.972 104.874 179.26 104.874 181.938C104.874 184.252 104.042 186.618 102.17 188.438C100.558 189.998 98.3735 190.986 95.4615 190.986C92.2115 190.986 90.0015 189.686 88.7015 188.438C87.0375 186.878 85.9975 184.538 85.9975 181.99C85.9975 179.494 87.1155 176.972 88.6755 175.412C89.8455 174.242 92.0035 172.864 95.4615 172.864ZM95.4355 176.556C93.9275 176.556 92.5755 177.102 91.6395 178.038C90.8855 178.766 90.1055 180.04 90.1055 181.964C90.1055 183.55 90.6255 184.824 91.6915 185.864C92.8095 186.93 94.0575 187.294 95.4095 187.294C97.1775 187.294 98.4255 186.644 99.2575 185.812C99.9335 185.162 100.766 183.94 100.766 181.938C100.766 180.144 100.038 178.818 99.2575 178.038C98.3995 177.206 97.0215 176.556 95.4355 176.556ZM107.852 173.254H122.438V190.596H118.434V176.634H111.856V190.596H107.852V173.254ZM136.037 173.254V176.634H130.239V179.988H135.751V183.368H130.239V187.216H136.037V190.596H126.235V173.254H136.037ZM139.286 190.596V173.254H143.29V187.216H149.712V173.254H153.716V187.216H156.056V194.496H152.468V190.596H139.286ZM158.202 173.254H162.206V184.59L170.24 173.046H173.776V190.596H169.772V179.234L161.738 190.804H158.202V173.254ZM189.431 173.254V190.596H185.427V184.278H184.907L180.825 190.596H176.197L181.189 183.81C180.201 183.628 179.317 183.16 178.719 182.588C177.471 181.418 177.263 179.936 177.263 178.74C177.263 177.31 177.627 176.036 178.667 174.944C180.071 173.488 181.891 173.254 183.477 173.254H189.431ZM185.427 181.21V176.53H184.491C183.893 176.53 182.853 176.556 182.125 177.154C181.839 177.414 181.371 177.96 181.371 178.896C181.371 179.754 181.735 180.274 182.047 180.56C182.775 181.21 183.867 181.21 184.491 181.21H185.427Z" fill="#151515"/>
<circle cx="77.5131" cy="68.5626" r="29.9068" fill="#026C82"/>
<path d="M69.3181 60.3677L85.7081 76.7576" stroke="white" stroke-width="5" stroke-linecap="round"/>
<path d="M85.708 60.3677L69.3181 76.7576" stroke="white" stroke-width="5" stroke-linecap="round"/>
<rect x="10.4199" y="256.642" width="97.0322" height="75.8953" rx="37.9476" fill="#E8E8E8"/>
<path d="M58.9361 280.257V307.284M58.9361 307.284L47.6063 295.954M58.9361 307.284L70.2658 295.954" stroke="#151515" stroke-width="2" stroke-linecap="round"/>
</svg>
