<svg width="177" height="177" viewBox="0 0 177 177" fill="none" xmlns="http://www.w3.org/2000/svg">
<g id="Group 10047">
<g id="Ellipse 26" filter="url(#filter0_d_0_161)">
<circle cx="68.0951" cy="68.0951" r="68.0951" transform="matrix(-1 0 0 1 156.19 14.7366)" fill="white"/>
</g>
<g id="Group 10047_2">
<path id="Vector" d="M91.8151 57.7671C86.6708 63.0691 83.1702 71.8025 83.0264 72.1523L81.074 76.7963C80.4542 78.2504 80.2731 79.8535 80.5532 81.4093C80.8332 82.9646 81.5618 84.4043 82.6494 85.551C84.0499 87.0395 86.0033 87.8833 88.0474 87.8833C90.0911 87.8833 92.0445 87.0394 93.4454 85.551C94.533 84.4043 95.2617 82.9645 95.5417 81.4093C95.8217 79.8535 95.6406 78.2504 95.0209 76.7963L93.0551 72.1247L93.014 72.0358C89.4591 65.3978 93.2539 59.2885 93.4183 59.0206L91.8151 57.7671ZM93.1306 77.5908H93.1301C93.5845 78.6769 93.7168 79.8711 93.5099 81.0297C93.3035 82.1889 92.7674 83.2636 91.9656 84.126C90.9526 85.2106 89.5349 85.826 88.0508 85.826C86.5666 85.826 85.1489 85.2106 84.1359 84.126C83.3318 83.2649 82.7932 82.1908 82.5839 81.032C82.3751 79.8728 82.505 78.6778 82.9576 77.5907L84.9167 72.9257C86.2188 69.8193 87.7817 66.8286 89.5883 63.9865C89.1444 67.0727 89.7016 70.2202 91.1776 72.9668L93.1306 77.5908Z" fill="#026C82"/>
<path id="Vector_2" d="M115.153 71.6248H98.7129C97.8461 71.6276 97.0382 72.0648 96.5617 72.7897C96.0562 73.5537 95.9664 74.5203 96.3223 75.3652C97.094 77.1108 97.3846 79.0311 97.1643 80.9271C96.944 82.8227 96.2201 84.625 95.0685 86.1474C93.3417 88.3492 90.6983 89.6351 87.9001 89.6351C85.1015 89.6351 82.4582 88.3492 80.7313 86.1474C79.5889 84.6203 78.875 82.8151 78.6643 80.9196C78.4536 79.0235 78.7532 77.106 79.5325 75.3653C79.8885 74.5205 79.7987 73.5538 79.2927 72.7898C78.8168 72.0649 78.0088 71.6277 77.142 71.6249H61.7231C60.2949 71.654 58.936 72.246 57.9431 73.2729C56.9497 74.2993 56.4025 75.6768 56.4212 77.1051V101.594C56.4026 103.023 56.9497 104.4 57.9431 105.427C58.936 106.453 60.295 107.046 61.7231 107.074H115.154C116.582 107.046 117.941 106.453 118.934 105.427C119.927 104.401 120.475 103.023 120.456 101.594V77.1259C120.48 75.6943 119.936 74.3115 118.942 73.2803C117.948 72.2491 116.586 71.6542 115.154 71.6251L115.153 71.6248ZM118.407 101.594C118.426 102.478 118.095 103.332 117.487 103.974C116.88 104.615 116.043 104.99 115.16 105.019H61.7222C60.8392 104.99 60.003 104.615 59.3948 103.974C58.787 103.332 58.4568 102.478 58.475 101.594V77.1256C58.4568 76.2426 58.787 75.3873 59.3948 74.7461C60.0031 74.1048 60.8393 73.7293 61.7222 73.7006H77.1215C77.2998 73.7035 77.4651 73.7962 77.5597 73.9472C77.682 74.1378 77.7026 74.3762 77.6147 74.5846C75.7722 78.9686 76.3819 84.024 79.1628 87.4628V87.4623C81.2801 90.1454 84.5097 91.7106 87.9275 91.7106C91.3453 91.7106 94.575 90.1452 96.6922 87.4623C99.4803 84.0373 100.117 78.9751 98.2403 74.5841V74.5846C98.1524 74.3762 98.1725 74.1378 98.2953 73.9472C98.3899 73.7962 98.5552 73.7035 98.7335 73.7006H115.153C116.036 73.7293 116.872 74.1048 117.48 74.7461C118.088 75.3873 118.418 76.2426 118.4 77.1256L118.407 101.594Z" fill="#444444"/>
</g>
</g>
<defs>
<filter id="filter0_d_0_161" x="0" y="0.736572" width="176.19" height="176.19" filterUnits="userSpaceOnUse" color-interpolation-filters="sRGB">
<feFlood flood-opacity="0" result="BackgroundImageFix"/>
<feColorMatrix in="SourceAlpha" type="matrix" values="0 0 0 0 0 0 0 0 0 0 0 0 0 0 0 0 0 0 127 0" result="hardAlpha"/>
<feOffset dy="6"/>
<feGaussianBlur stdDeviation="10"/>
<feColorMatrix type="matrix" values="0 0 0 0 0.819608 0 0 0 0 0.8 0 0 0 0 0.870588 0 0 0 0.45 0"/>
<feBlend mode="normal" in2="BackgroundImageFix" result="effect1_dropShadow_0_161"/>
<feBlend mode="normal" in="SourceGraphic" in2="effect1_dropShadow_0_161" result="shape"/>
</filter>
</defs>
</svg>
