<svg width="177" height="177" viewBox="0 0 177 177" fill="none" xmlns="http://www.w3.org/2000/svg">
<g id="Group 10045">
<g id="Ellipse 24" filter="url(#filter0_d_0_185)">
<circle cx="68.0951" cy="68.0951" r="68.0951" transform="matrix(-1 0 0 1 156.69 14.3203)" fill="white"/>
</g>
<g id="Group 10475">
<g id="20">
<path d="M104.63 105.263H95.6473V103.373L98.8729 100.112C99.828 99.1339 100.452 98.4572 100.745 98.0822C101.038 97.7013 101.249 97.3497 101.378 97.0275C101.507 96.7052 101.571 96.3712 101.571 96.0255C101.571 95.5099 101.428 95.1261 101.14 94.8741C100.859 94.6222 100.481 94.4962 100.007 94.4962C99.5086 94.4962 99.0252 94.6105 98.5565 94.839C98.0877 95.0675 97.5985 95.3927 97.0887 95.8146L95.6122 94.0656C96.245 93.5265 96.7694 93.1456 97.1854 92.923C97.6014 92.7003 98.0555 92.5304 98.5477 92.4132C99.0399 92.2902 99.5907 92.2286 100.2 92.2286C101.003 92.2286 101.712 92.3751 102.327 92.6681C102.942 92.9611 103.42 93.3712 103.76 93.8986C104.099 94.4259 104.269 95.0294 104.269 95.7091C104.269 96.3009 104.164 96.8575 103.953 97.379C103.748 97.8947 103.426 98.4249 102.986 98.9698C102.553 99.5148 101.785 100.291 100.683 101.299L99.0311 102.855V102.978H104.63V105.263Z" fill="#026C82"/>
<path d="M114.843 98.838C114.843 101.082 114.473 102.743 113.735 103.821C113.003 104.9 111.872 105.439 110.343 105.439C108.86 105.439 107.741 104.882 106.985 103.769C106.235 102.655 105.86 101.012 105.86 98.838C105.86 96.5704 106.226 94.9005 106.959 93.8282C107.691 92.7501 108.819 92.2111 110.343 92.2111C111.825 92.2111 112.944 92.7736 113.7 93.8986C114.462 95.0236 114.843 96.67 114.843 98.838ZM108.558 98.838C108.558 100.414 108.693 101.545 108.963 102.231C109.238 102.91 109.698 103.25 110.343 103.25C110.975 103.25 111.432 102.904 111.714 102.213C111.995 101.522 112.136 100.397 112.136 98.838C112.136 97.2618 111.992 96.131 111.705 95.4454C111.424 94.754 110.97 94.4083 110.343 94.4083C109.704 94.4083 109.247 94.754 108.972 95.4454C108.696 96.131 108.558 97.2618 108.558 98.838Z" fill="#026C82"/>
</g>
<path id="Vector" d="M86.5924 58.1705C80.1622 58.1705 73.9954 60.7249 69.4487 65.2717C64.9019 69.8185 62.3475 75.9852 62.3475 82.4154C62.3475 88.8455 64.9019 95.0123 69.4487 99.5591C73.9954 104.106 80.1622 106.66 86.5924 106.66V103.63C82.3966 103.63 78.295 102.385 74.8064 100.054C71.3177 97.7233 68.5986 94.4101 66.9929 90.5337C65.3873 86.6573 64.9672 82.3919 65.7857 78.2767C66.6043 74.1615 68.6248 70.3815 71.5916 67.4146C74.5585 64.4478 78.3385 62.4273 82.4537 61.6088C86.5688 60.7902 90.8343 61.2103 94.7107 62.816C98.5871 64.4216 101.9 67.1407 104.231 70.6294C106.562 74.118 107.807 78.2196 107.807 82.4154H110.837C110.837 75.9852 108.283 69.8185 103.736 65.2717C99.1893 60.7249 93.0225 58.1705 86.5924 58.1705Z" fill="#444444"/>
<path id="Vector_2" d="M85.0771 81.7947L74.9094 91.9473L77.046 94.0839L87.6531 83.4767C87.9386 83.197 88.102 82.8157 88.1077 82.416V65.7477H85.0771V81.7947Z" fill="#444444"/>
</g>
</g>
<defs>
<filter id="filter0_d_0_185" x="0.5" y="0.320312" width="176.19" height="176.19" filterUnits="userSpaceOnUse" color-interpolation-filters="sRGB">
<feFlood flood-opacity="0" result="BackgroundImageFix"/>
<feColorMatrix in="SourceAlpha" type="matrix" values="0 0 0 0 0 0 0 0 0 0 0 0 0 0 0 0 0 0 127 0" result="hardAlpha"/>
<feOffset dy="6"/>
<feGaussianBlur stdDeviation="10"/>
<feColorMatrix type="matrix" values="0 0 0 0 0.819608 0 0 0 0 0.8 0 0 0 0 0.870588 0 0 0 0.45 0"/>
<feBlend mode="normal" in2="BackgroundImageFix" result="effect1_dropShadow_0_185"/>
<feBlend mode="normal" in="SourceGraphic" in2="effect1_dropShadow_0_185" result="shape"/>
</filter>
</defs>
</svg>
