<svg width="177" height="177" viewBox="0 0 177 177" fill="none" xmlns="http://www.w3.org/2000/svg">
<g id="Group 10049">
<g id="Ellipse 23" filter="url(#filter0_d_0_171)">
<circle cx="68.0951" cy="68.0951" r="68.0951" transform="matrix(-1 0 0 1 156.19 14.2959)" fill="white"/>
</g>
<g id="22-money bag">
<path id="Vector" d="M93.7659 86.9279H89.2291C88.0259 86.9279 86.872 87.4058 86.0212 88.2566C85.1704 89.1074 84.6924 90.2614 84.6924 91.4646C84.6924 92.6678 85.1704 93.8218 86.0212 94.6726C86.872 95.5234 88.0259 96.0014 89.2291 96.0014H93.7659C94.0667 96.0014 94.3552 95.8819 94.5679 95.6692C94.7806 95.4565 94.9001 95.168 94.9001 94.8672V88.062C94.9001 87.7612 94.7806 87.4728 94.5679 87.2601C94.3552 87.0473 94.0667 86.9279 93.7659 86.9279ZM92.6317 93.733H89.2291C88.6275 93.733 88.0506 93.494 87.6251 93.0686C87.1997 92.6432 86.9608 92.0662 86.9608 91.4646C86.9608 90.863 87.1997 90.286 87.6251 89.8606C88.0506 89.4352 88.6275 89.1962 89.2291 89.1962H92.6317V93.733Z" fill="#444444"/>
<path id="Vector_2" d="M111.913 55.1704H75.6189C74.7165 55.1704 73.851 55.5289 73.2129 56.167C72.5748 56.8051 72.2163 57.6706 72.2163 58.573V66.5123H68.8138C67.9113 66.5123 67.0459 66.8708 66.4078 67.5089C65.7697 68.147 65.4112 69.0124 65.4112 69.9148V73.3174H64.277C63.3746 73.3174 62.5091 73.6759 61.871 74.314C61.2329 74.9521 60.8745 75.8176 60.8745 76.72V106.209C60.8745 107.111 61.2329 107.977 61.871 108.615C62.5091 109.253 63.3746 109.611 64.277 109.611H91.4975C92.3999 109.611 93.2654 109.253 93.9035 108.615C94.5416 107.977 94.9001 107.111 94.9001 106.209H98.3026C99.205 106.209 100.07 105.85 100.709 105.212C101.347 104.574 101.705 103.709 101.705 102.806V89.196H103.974C104.876 89.196 105.741 88.8375 106.38 88.1994C107.018 87.5613 107.376 86.6959 107.376 85.7935V84.6593C108.279 84.6593 109.144 84.3008 109.782 83.6627C110.42 83.0246 110.779 82.1591 110.779 81.2567V80.1225H111.913C112.815 80.1225 113.681 79.764 114.319 79.1259C114.957 78.4878 115.315 77.6224 115.315 76.72V58.573C115.315 57.6706 114.957 56.8051 114.319 56.167C113.681 55.5289 112.815 55.1704 111.913 55.1704ZM113.047 76.72C113.047 77.0208 112.928 77.3093 112.715 77.522C112.502 77.7347 112.214 77.8542 111.913 77.8542H97.1684V80.1225H108.51V81.2567C108.51 81.5575 108.391 81.846 108.178 82.0587C107.965 82.2714 107.677 82.3909 107.376 82.3909H97.1684V84.6593H105.108V85.7935C105.108 86.0943 104.988 86.3828 104.776 86.5955C104.563 86.8082 104.274 86.9276 103.974 86.9276H97.1684V89.196H99.4368V102.806C99.4368 103.107 99.3173 103.396 99.1046 103.608C98.8919 103.821 98.6034 103.94 98.3026 103.94H94.9001V98.2695H92.6317V106.209C92.6317 106.51 92.5122 106.798 92.2995 107.011C92.0868 107.224 91.7983 107.343 91.4975 107.343H64.277C63.9762 107.343 63.6877 107.224 63.475 107.011C63.2623 106.798 63.1428 106.51 63.1428 106.209V76.72C63.1428 76.4192 63.2623 76.1307 63.475 75.918C63.6877 75.7053 63.9762 75.5858 64.277 75.5858H91.4975C91.7983 75.5858 92.0868 75.7053 92.2995 75.918C92.5122 76.1307 92.6317 76.4192 92.6317 76.72V84.6593H94.9001V76.72C94.9001 75.8176 94.5416 74.9521 93.9035 74.314C93.2654 73.6759 92.3999 73.3174 91.4975 73.3174H67.6796V69.9148C67.6796 69.614 67.7991 69.3256 68.0118 69.1129C68.2245 68.9002 68.513 68.7807 68.8138 68.7807H72.2163V71.049H74.4847V58.573C74.4847 58.2722 74.6042 57.9837 74.8169 57.771C75.0296 57.5583 75.3181 57.4388 75.6189 57.4388H111.913C112.214 57.4388 112.502 57.5583 112.715 57.771C112.928 57.9837 113.047 58.2722 113.047 58.573V76.72Z" fill="#444444"/>
<path id="Vector_3" d="M109.644 61.9758C109.344 61.9758 109.055 61.8563 108.842 61.6436C108.63 61.4309 108.51 61.1424 108.51 60.8416C108.51 60.5408 108.391 60.2523 108.178 60.0396C107.965 59.8269 107.677 59.7074 107.376 59.7074H80.1556C79.8548 59.7074 79.5663 59.8269 79.3536 60.0396C79.1409 60.2523 79.0214 60.5408 79.0214 60.8416C79.0214 61.1424 78.9019 61.4309 78.6892 61.6436C78.4765 61.8563 78.188 61.9758 77.8872 61.9758C77.5864 61.9758 77.2979 62.0953 77.0852 62.308C76.8725 62.5207 76.7531 62.8092 76.7531 63.11V71.0493H79.0214V64.0502C79.4995 63.8801 79.9338 63.6057 80.2926 63.2469C80.6514 62.8881 80.9258 62.4539 81.0959 61.9758H106.436C106.606 62.4539 106.88 62.8881 107.239 63.2469C107.598 63.6057 108.032 63.8801 108.51 64.0502V71.2432C108.032 71.4133 107.598 71.6877 107.239 72.0465C106.88 72.4053 106.606 72.8395 106.436 73.3176H97.1684V75.586H107.376C107.677 75.586 107.965 75.4665 108.178 75.2538C108.391 75.0411 108.51 74.7526 108.51 74.4518C108.51 74.151 108.63 73.8625 108.842 73.6498C109.055 73.4371 109.344 73.3176 109.644 73.3176C109.945 73.3176 110.234 73.1981 110.446 72.9854C110.659 72.7727 110.779 72.4843 110.779 72.1835V63.11C110.779 62.8092 110.659 62.5207 110.446 62.308C110.234 62.0953 109.945 61.9758 109.644 61.9758Z" fill="#026C82"/>
<path id="Vector_4" d="M92.6317 64.2441C91.9587 64.2441 91.3009 64.4437 90.7413 64.8176C90.1818 65.1915 89.7457 65.7229 89.4881 66.3446C89.2306 66.9663 89.1632 67.6505 89.2945 68.3105C89.4258 68.9705 89.7499 69.5768 90.2257 70.0527C90.7016 70.5285 91.3078 70.8526 91.9679 70.9839C92.6279 71.1152 93.3121 71.0478 93.9338 70.7903C94.5555 70.5327 95.0869 70.0966 95.4608 69.5371C95.8347 68.9775 96.0342 68.3197 96.0342 67.6467C96.0342 66.7443 95.6758 65.8788 95.0377 65.2407C94.3996 64.6026 93.5341 64.2441 92.6317 64.2441ZM92.6317 68.7809C92.4074 68.7809 92.1881 68.7144 92.0016 68.5897C91.8151 68.4651 91.6697 68.288 91.5838 68.0807C91.498 67.8735 91.4755 67.6454 91.5193 67.4254C91.5631 67.2054 91.6711 67.0033 91.8297 66.8447C91.9883 66.6861 92.1904 66.5781 92.4104 66.5343C92.6304 66.4905 92.8585 66.513 93.0657 66.5988C93.273 66.6847 93.4501 66.8301 93.5747 67.0166C93.6994 67.2031 93.7659 67.4224 93.7659 67.6467C93.7659 67.9475 93.6464 68.236 93.4337 68.4487C93.221 68.6614 92.9325 68.7809 92.6317 68.7809Z" fill="#026C82"/>
<path id="Vector_5" d="M67.6796 101.672V99.4039H65.4112V101.672C65.4112 102.575 65.7697 103.44 66.4078 104.078C67.0459 104.716 67.9113 105.075 68.8138 105.075H71.0821V102.806H68.8138C68.5129 102.806 68.2245 102.687 68.0118 102.474C67.7991 102.262 67.6796 101.973 67.6796 101.672Z" fill="#444444"/>
<path id="Vector_6" d="M75.6189 102.806H73.3505V105.075H75.6189V102.806Z" fill="#444444"/>
</g>
</g>
<defs>
<filter id="filter0_d_0_171" x="-0.00012207" y="0.295898" width="176.19" height="176.19" filterUnits="userSpaceOnUse" color-interpolation-filters="sRGB">
<feFlood flood-opacity="0" result="BackgroundImageFix"/>
<feColorMatrix in="SourceAlpha" type="matrix" values="0 0 0 0 0 0 0 0 0 0 0 0 0 0 0 0 0 0 127 0" result="hardAlpha"/>
<feOffset dy="6"/>
<feGaussianBlur stdDeviation="10"/>
<feColorMatrix type="matrix" values="0 0 0 0 0.819608 0 0 0 0 0.8 0 0 0 0 0.870588 0 0 0 0.45 0"/>
<feBlend mode="normal" in2="BackgroundImageFix" result="effect1_dropShadow_0_171"/>
<feBlend mode="normal" in="SourceGraphic" in2="effect1_dropShadow_0_171" result="shape"/>
</filter>
</defs>
</svg>
