<svg width="53" height="111" viewBox="0 0 53 111" fill="none" xmlns="http://www.w3.org/2000/svg">
<rect x="0.684937" y="106.875" width="25" height="4" rx="2" fill="#026C82"/>
<path d="M45.1377 44.1301L37.0169 41.5892C36.1089 40.2051 34.689 39.2376 33.0686 38.8989V36.0217C34.3452 35.3711 35.5133 34.5266 36.5312 33.5182C38.801 31.2564 40.1994 28.2657 40.4795 25.0736H40.5418C41.8631 25.0736 43.1303 24.5487 44.0646 23.6143C44.999 22.68 45.5239 21.4128 45.5239 20.0915C45.5239 18.7701 44.999 17.5029 44.0646 16.5686C43.1303 15.6343 41.8631 15.1094 40.5418 15.1094V12.6183C42.0882 11.4577 43.3433 9.9532 44.208 8.22383C45.0727 6.49446 45.5232 4.58763 45.5239 2.65413V1.40861C45.5239 1.07828 45.3926 0.761472 45.1591 0.527891C44.9255 0.29431 44.6087 0.163086 44.2783 0.163086H21.8589C19.5474 0.165723 17.3313 1.08514 15.6968 2.71964C14.0623 4.35413 13.1429 6.57023 13.1402 8.88175V15.1094C11.8189 15.1094 10.5517 15.6343 9.61736 16.5686C8.68304 17.5029 8.15814 18.7701 8.15814 20.0915C8.15814 21.4128 8.68304 22.68 9.61736 23.6143C10.5517 24.5487 11.8189 25.0736 13.1402 25.0736H13.2399C13.4915 27.354 14.2943 29.5389 15.5789 31.4398C16.8635 33.3407 18.5914 34.9004 20.6134 35.9844V38.8989C18.993 39.2376 17.5731 40.2051 16.6651 41.5892L8.54425 44.1176C6.26163 44.825 4.26623 46.2461 2.85149 48.172C1.43676 50.0979 0.677362 52.427 0.684993 54.8167V73.649C0.684993 73.9793 0.816218 74.2961 1.0498 74.5297C1.28338 74.7633 1.60018 74.8945 1.93052 74.8945H51.7515C52.0818 74.8945 52.3986 74.7633 52.6322 74.5297C52.8658 74.2961 52.997 73.9793 52.997 73.649V54.8167C53.0063 52.4281 52.2474 50.0998 50.8322 48.1755C49.417 46.2512 47.4206 44.833 45.1377 44.1301ZM13.1402 22.5825C12.4811 22.5776 11.8503 22.3136 11.3842 21.8475C10.9181 21.3814 10.6541 20.7506 10.6492 20.0915C10.6512 19.4314 10.9142 18.7989 11.381 18.3322C11.8477 17.8655 12.4802 17.6024 13.1402 17.6004V22.5825ZM35.5597 45.002V46.4592C34.7533 46.1769 33.875 46.1769 33.0686 46.4592V41.4771C33.796 41.737 34.4256 42.2149 34.8714 42.8457C35.3172 43.4765 35.5575 44.2295 35.5597 45.002ZM43.0328 20.0915C43.0279 20.7506 42.7639 21.3814 42.2978 21.8475C41.8317 22.3136 41.2009 22.5776 40.5418 22.5825V17.6004C41.2018 17.6024 41.8343 17.8655 42.301 18.3322C42.7678 18.7989 43.0308 19.4314 43.0328 20.0915ZM15.6313 8.88175C15.6313 7.23009 16.2874 5.64607 17.4553 4.47816C18.6232 3.31026 20.2072 2.65413 21.8589 2.65413H43.0328C43.0344 4.29337 42.6303 5.90752 41.8566 7.35271C41.083 8.79789 39.9637 10.0292 38.5987 10.9369C36.9637 12.0351 35.0382 12.6205 33.0686 12.6183C30.9979 12.6152 28.9797 11.9669 27.2944 10.7638C25.6091 9.56065 24.3405 7.86235 23.6649 5.90495C23.5793 5.65989 23.4192 5.44772 23.207 5.2981C22.9949 5.14848 22.7413 5.06889 22.4817 5.07045C22.2238 5.07001 21.9723 5.15022 21.7624 5.29987C21.5524 5.44951 21.3946 5.66109 21.3109 5.90495C20.837 7.2444 20.0864 8.46904 19.1078 9.49911C18.1292 10.5292 16.9447 11.3416 15.6313 11.8835V8.88175ZM15.6313 23.4419V14.524C18.4745 13.6154 20.9024 11.726 22.4817 9.19314C23.5948 11.0008 25.152 12.4935 27.0052 13.5291C28.8583 14.5647 30.9457 15.1087 33.0686 15.1094C34.7824 15.1082 36.4779 14.7564 38.0507 14.0756V23.828C38.0482 25.3678 37.7291 26.8906 37.1132 28.3018C36.4974 29.713 35.5979 30.9825 34.4707 32.0314C33.3435 33.0803 32.0127 33.8863 30.5609 34.3992C29.1091 34.9121 27.5674 35.1209 26.0314 35.0128C23.16 34.7467 20.4944 33.4077 18.5667 31.2629C16.6389 29.1182 15.5908 26.3254 15.6313 23.4419ZM30.5776 36.9932V44.703L26.841 52.1762L23.1044 44.703V36.9932C24.0007 37.2607 24.9239 37.4278 25.857 37.4914C26.1809 37.5163 26.5047 37.5288 26.8285 37.5288C28.0972 37.5273 29.3593 37.347 30.5776 36.9932ZM18.1223 45.002C18.1245 44.2295 18.3648 43.4765 18.8106 42.8457C19.2564 42.2149 19.886 41.737 20.6134 41.4771V46.4592C19.807 46.1769 18.9287 46.1769 18.1223 46.4592V45.002ZM50.506 72.4035H43.0328V56.2117H40.5418V72.4035H13.1402V56.2117H10.6492V72.4035H3.17604V54.8167C3.16916 52.9576 3.75979 51.1455 4.86085 49.6475C5.96192 48.1495 7.51515 47.0449 9.29156 46.4966L15.6811 44.5037C15.6687 44.6657 15.6313 44.8276 15.6313 45.002V49.984C15.6313 50.3144 15.7625 50.6312 15.9961 50.8648C16.2297 51.0983 16.5465 51.2296 16.8768 51.2296C17.2071 51.2296 17.5239 51.0983 17.7575 50.8648C17.9911 50.6312 18.1223 50.3144 18.1223 49.984C18.1223 49.6537 18.2536 49.3369 18.4871 49.1033C18.7207 48.8697 19.0375 48.7385 19.3679 48.7385C19.6982 48.7385 20.015 48.8697 20.2486 49.1033C20.4822 49.3369 20.6134 49.6537 20.6134 49.984C20.6121 50.2942 20.7276 50.5935 20.9368 50.8224C21.146 51.0514 21.4337 51.1933 21.7427 51.22C22.0517 51.2467 22.3594 51.1561 22.6048 50.9664C22.8501 50.7766 23.0152 50.5016 23.0671 50.1958L25.7325 55.5266C25.837 55.7306 25.9958 55.9019 26.1914 56.0214C26.387 56.141 26.6118 56.2042 26.841 56.2042C27.0702 56.2042 27.295 56.141 27.4906 56.0214C27.6862 55.9019 27.845 55.7306 27.9495 55.5266L30.6149 50.1958C30.6668 50.5016 30.8319 50.7766 31.0772 50.9664C31.3226 51.1561 31.6303 51.2467 31.9393 51.22C32.2483 51.1933 32.536 51.0514 32.7452 50.8224C32.9544 50.5935 33.0699 50.2942 33.0686 49.984C33.0686 49.6537 33.1998 49.3369 33.4334 49.1033C33.667 48.8697 33.9838 48.7385 34.3141 48.7385C34.6445 48.7385 34.9613 48.8697 35.1949 49.1033C35.4284 49.3369 35.5597 49.6537 35.5597 49.984C35.5597 50.3144 35.6909 50.6312 35.9245 50.8648C36.1581 51.0983 36.4749 51.2296 36.8052 51.2296C37.1355 51.2296 37.4523 51.0983 37.6859 50.8648C37.9195 50.6312 38.0507 50.3144 38.0507 49.984V45.002C38.0507 44.8276 38.0134 44.6657 38.0009 44.5037L44.3904 46.509C46.167 47.0531 47.7211 48.1548 48.8226 49.6511C49.9241 51.1474 50.5143 52.9587 50.506 54.8167V72.4035Z" fill="#444444"/>
<path d="M21.8588 22.5827C23.2346 22.5827 24.3499 21.4674 24.3499 20.0916C24.3499 18.7159 23.2346 17.6006 21.8588 17.6006C20.4831 17.6006 19.3678 18.7159 19.3678 20.0916C19.3678 21.4674 20.4831 22.5827 21.8588 22.5827Z" fill="#444444"/>
<path d="M31.8231 22.5827C33.1988 22.5827 34.3141 21.4674 34.3141 20.0916C34.3141 18.7159 33.1988 17.6006 31.8231 17.6006C30.4473 17.6006 29.332 18.7159 29.332 20.0916C29.332 21.4674 30.4473 22.5827 31.8231 22.5827Z" fill="#444444"/>
<path d="M33.0686 25.0735H30.5776C30.5776 26.0645 30.1839 27.0149 29.4831 27.7156C28.7824 28.4164 27.832 28.8101 26.841 28.8101C25.85 28.8101 24.8996 28.4164 24.1988 27.7156C23.4981 27.0149 23.1044 26.0645 23.1044 25.0735H20.6134C20.6134 26.7252 21.2695 28.3092 22.4374 29.4771C23.6053 30.645 25.1893 31.3011 26.841 31.3011C28.4927 31.3011 30.0767 30.645 31.2446 29.4771C32.4125 28.3092 33.0686 26.7252 33.0686 25.0735Z" fill="#444444"/>
</svg>
