<svg width="80" height="115" viewBox="0 0 80 115" fill="none" xmlns="http://www.w3.org/2000/svg">
<rect x="0.287598" y="110.875" width="25" height="4" rx="2" fill="#026C82"/>
<path fill-rule="evenodd" clip-rule="evenodd" d="M48.1813 0.0585938C34.202 0.0585938 22.3773 9.35818 18.5491 22.0998H4.94981C2.3889 22.0998 0.287598 24.2011 0.287598 26.762V74.2318C0.287598 76.7927 2.3889 78.894 4.94981 78.894H32.0754C34.6362 78.894 36.7376 76.7927 36.7376 74.2318V59.7402C40.2792 61.1536 44.1388 61.9389 48.1813 61.9389C65.2539 61.9389 79.1214 48.0715 79.1214 30.9987C79.1214 13.9261 65.2539 0.0585938 48.1813 0.0585938ZM48.1813 2.60162C63.8796 2.60162 76.5784 15.3004 76.5784 30.9987C76.5784 46.6971 63.8796 59.3959 48.1812 59.3959C32.4829 59.3959 19.7841 46.6971 19.7841 30.9987C19.7841 15.3004 32.4829 2.60162 48.1813 2.60162ZM33.3453 14.8846C33.0081 14.8846 32.6847 15.0186 32.4463 15.257C32.2078 15.4955 32.0738 15.8189 32.0738 16.1561V45.8247C32.0738 46.1619 32.2078 46.4853 32.4463 46.7238C32.6847 46.9622 33.0081 47.0962 33.3453 47.0962H63.014C63.3512 47.0962 63.6746 46.9622 63.913 46.7238C64.1515 46.4853 64.2854 46.1619 64.2855 45.8247V16.1561C64.2854 15.8189 64.1515 15.4955 63.913 15.257C63.6746 15.0186 63.3512 14.8846 63.014 14.8846H33.3453ZM34.6168 17.4276H61.7424V31.7007L56.2259 26.3679C56.1036 26.2498 55.9588 26.1575 55.8001 26.0964C55.6414 26.0352 55.472 26.0066 55.3021 26.012C54.9698 26.0225 54.6548 26.1628 54.4246 26.4027L47.3153 33.8298L41.4677 29.9325C41.2547 29.7904 41.0037 29.716 40.7476 29.7189C40.4155 29.7229 40.0982 29.8566 39.8634 30.0915L34.6168 35.3381V17.4276ZM40.524 21.3531C39.962 21.3531 39.423 21.5764 39.0255 21.9738C38.6281 22.3712 38.4048 22.9103 38.4048 23.4723C38.4048 24.0344 38.6281 24.5734 39.0255 24.9708C39.423 25.3682 39.962 25.5915 40.524 25.5915C41.0861 25.5915 41.6251 25.3682 42.0225 24.9708C42.4199 24.5734 42.6432 24.0344 42.6432 23.4723C42.6432 22.9103 42.4199 22.3712 42.0225 21.9738C41.6251 21.5764 41.0861 21.3531 40.524 21.3531ZM4.94981 24.6428H17.8984C17.6031 26.0537 17.4095 27.5015 17.314 28.9756C17.1564 28.9112 16.9875 28.8791 16.8173 28.8812H11.7312C11.5627 28.8788 11.3954 28.9099 11.2391 28.9727C11.0827 29.0356 10.9404 29.1288 10.8204 29.2471C10.7004 29.3655 10.6052 29.5064 10.5401 29.6619C10.4751 29.8173 10.4416 29.9842 10.4416 30.1527C10.4416 30.3212 10.4751 30.488 10.5401 30.6435C10.6052 30.7989 10.7004 30.9399 10.8204 31.0582C10.9404 31.1765 11.0827 31.2698 11.2391 31.3326C11.3954 31.3954 11.5627 31.4266 11.7312 31.4242H16.8173C16.9644 31.4251 17.1107 31.4004 17.2494 31.3513C17.3832 43.2412 24.2402 53.5273 34.1946 58.5896V74.2318C34.1946 75.4278 33.2714 76.351 32.0754 76.351H4.94981C3.75374 76.351 2.83062 75.4278 2.83062 74.2318V26.762C2.83062 25.5659 3.75374 24.6428 4.94981 24.6428ZM55.3783 29.0831L61.7424 35.2387V43.449L49.4644 35.2636L55.3783 29.0831ZM40.9247 32.6278L58.8136 44.5532H34.6168V38.934L40.9247 32.6278ZM18.5126 68.7219C17.9506 68.7219 17.4115 68.9452 17.0141 69.3426C16.6167 69.74 16.3934 70.2791 16.3934 70.8411C16.3934 71.4032 16.6167 71.9421 17.0141 72.3396C17.4115 72.737 17.9506 72.9603 18.5126 72.9603C19.0747 72.9603 19.6137 72.737 20.0111 72.3396C20.4085 71.9421 20.6318 71.4032 20.6318 70.8411C20.6318 70.2791 20.4085 69.74 20.0111 69.3426C19.6137 68.9452 19.0747 68.7219 18.5126 68.7219Z" fill="#444444"/>
<path fill-rule="evenodd" clip-rule="evenodd" d="M33.3453 14.8845C33.0081 14.8846 32.6847 15.0185 32.4462 15.257C32.2078 15.4954 32.0738 15.8188 32.0738 16.156V45.8247C32.0738 46.1619 32.2078 46.4853 32.4462 46.7237C32.6847 46.9622 33.0081 47.0961 33.3453 47.0962H63.0139C63.3511 47.0961 63.6745 46.9622 63.913 46.7237C64.1514 46.4853 64.2854 46.1619 64.2854 45.8247V16.156C64.2854 15.8188 64.1514 15.4954 63.913 15.257C63.6745 15.0185 63.3511 14.8846 63.0139 14.8845H33.3453ZM34.6168 17.4275H61.7424V31.7006L56.2259 26.3679C56.1035 26.2498 55.9587 26.1574 55.8 26.0963C55.6413 26.0352 55.472 26.0065 55.302 26.012C54.9697 26.0225 54.6547 26.1627 54.4246 26.4026L47.3153 33.8297L41.4677 29.9325C41.2546 29.7904 41.0036 29.7159 40.7475 29.7188C40.4155 29.7228 40.0982 29.8565 39.8634 30.0914L34.6168 35.338V17.4275ZM40.524 21.3531C39.9619 21.3531 39.4229 21.5763 39.0255 21.9738C38.6281 22.3712 38.4048 22.9102 38.4048 23.4723C38.4048 24.0343 38.6281 24.5733 39.0255 24.9707C39.4229 25.3682 39.9619 25.5914 40.524 25.5914C41.086 25.5914 41.6251 25.3682 42.0225 24.9707C42.4199 24.5733 42.6432 24.0343 42.6432 23.4723C42.6432 22.9102 42.4199 22.3712 42.0225 21.9738C41.6251 21.5763 41.086 21.3531 40.524 21.3531ZM55.3782 29.0831L61.7424 35.2387V43.4489L49.4643 35.2635L55.3782 29.0831ZM40.9247 32.6277L58.8136 44.5532H34.6168V38.9339L40.9247 32.6277Z" fill="#444444"/>
</svg>
