<svg width="76" height="111" viewBox="0 0 76 111" fill="none" xmlns="http://www.w3.org/2000/svg">
<rect x="0.890259" y="106.875" width="25" height="4" rx="2" fill="#026C82"/>
<path d="M50.3091 24.2701C50.3091 23.6055 50.8499 23.0647 51.5145 23.0647C52.179 23.0647 52.7198 23.6055 52.7198 24.2701V25.4754H55.1305V24.2701C55.1305 22.2763 53.5084 20.6541 51.5145 20.6541C49.5205 20.6541 47.8984 22.2763 47.8984 24.2701V25.4754H50.3091V24.2701Z" fill="#444444"/>
<path d="M61.1571 20.6541C59.1632 20.6541 57.5411 22.2763 57.5411 24.2701V25.4754H59.9518V24.2701C59.9518 23.6055 60.4925 23.0647 61.1571 23.0647C61.8217 23.0647 62.3624 23.6055 62.3624 24.2701V25.4754H64.7731V24.2701C64.7731 22.2763 63.151 20.6541 61.1571 20.6541Z" fill="#444444"/>
<path d="M61.1571 28.9427C60.603 31.1592 58.6204 32.7071 56.3358 32.7071C54.0512 32.7071 52.0686 31.1592 51.5144 28.9427L51.4784 28.7988L49.1398 29.3836L49.1758 29.5275C49.9986 32.8189 52.9429 35.1178 56.3358 35.1178C59.7287 35.1178 62.673 32.8189 63.4958 29.5275L63.5318 29.3836L61.1931 28.7988L61.1571 28.9427Z" fill="#444444"/>
<path d="M75.6212 23.0645C75.6212 21.742 75.0856 20.5423 74.2203 19.6704C75.1385 17.8122 75.6212 15.7624 75.6212 13.6814C75.6212 6.22729 69.5569 0.163086 62.1029 0.163086H50.5687C45.798 0.163086 41.5966 2.64729 39.1899 6.38986C35.5433 2.41225 30.4641 0.163086 24.997 0.163086C14.3629 0.163086 5.71161 8.81455 5.71161 19.4485V22.6416L3.25799 25.7087C1.73113 27.6174 0.890259 30.0146 0.890259 32.4589C0.890259 34.4168 1.42272 36.3393 2.43023 38.0182L2.7507 38.5525C3.71 40.1512 3.71 42.1379 2.7507 43.7367C1.53361 45.7651 0.890259 48.0878 0.890259 50.4534C0.890259 53.2596 1.81747 56.0414 3.50132 58.2863L4.50627 59.6265V60.6338C4.50627 63.8446 7.11839 66.4567 10.3291 66.4567C11.9639 66.4567 13.5198 65.7556 14.6111 64.5753C15.4318 65.1252 16.3233 65.5631 17.2634 65.8778C17.2232 67.0488 17.5779 68.2223 18.2869 69.1737L18.5906 69.5811L21.279 69.9386L20.9032 72.7641L21.3897 73.1894C22.6466 74.2888 24.2584 74.894 25.9283 74.894H27.2085L28.9052 68.86L44.2824 64.441V68.1223L43.7733 68.3768C42.6004 68.9635 41.8717 70.1424 41.8717 71.4539C41.8717 73.3508 43.415 74.894 45.3119 74.894H67.3597C69.2566 74.894 70.7999 73.3508 70.7999 71.4539C70.7999 70.4837 70.4003 69.5868 69.7179 68.9478L72.0542 67.7797C74.2544 66.6797 75.6212 64.4682 75.6212 62.0084C75.6212 61.7043 75.5994 61.3973 75.5563 61.0958L74.0699 50.6913C73.4742 46.5216 70.4824 43.0454 66.4481 41.8349L61.1572 40.2478V39.5692L63.6635 38.6293C67.9319 37.0288 70.7999 32.8904 70.7999 28.33C70.7999 28.1824 70.7958 28.034 70.7898 27.8859H70.7999C73.4584 27.8859 75.6212 25.723 75.6212 23.0645ZM70.7999 25.4752H70.5856L70.1473 20.6538H70.7999C72.1291 20.6538 73.2105 21.7353 73.2105 23.0645C73.2105 24.3937 72.1291 25.4752 70.7999 25.4752ZM50.5687 2.57376H62.1029C68.2277 2.57376 73.2105 7.55663 73.2105 13.6814C73.2105 15.3288 72.8426 16.9525 72.1411 18.4345C71.715 18.3108 71.2653 18.2432 70.7999 18.2432H69.9283L69.49 13.4218H66.5812C65.0716 13.4218 63.6298 12.7009 62.7241 11.4933C61.3655 9.68194 59.2027 8.60045 56.9385 8.60045H56.3358V11.0111H56.9385C58.3418 11.0111 59.6862 11.6349 60.5962 12.693L60.1296 13.3929C59.6143 14.1658 58.7522 14.6271 57.8232 14.6271C56.6832 14.6271 55.673 13.9433 55.2495 12.8848L54.463 10.9186C53.8998 9.51033 52.5559 8.60045 51.0393 8.60045C49.3464 8.60045 47.8757 9.74703 47.4629 11.3889L46.9569 13.401L46.5256 13.4042C44.6213 13.4192 43.0548 14.8605 42.8818 16.757L42.7462 18.243H41.8717C41.312 18.243 40.7749 18.3399 40.2747 18.516C39.7409 17.1953 39.4611 15.7749 39.4611 14.3481V13.6811C39.4611 7.55663 44.4439 2.57376 50.5687 2.57376ZM46.5367 41.448C46.4769 40.4422 46.7174 39.4292 47.2432 38.5525L47.564 38.0181C47.5724 38.0039 47.5802 37.9893 47.5887 37.9751C48.0419 38.2243 48.5151 38.4445 49.0081 38.6292L51.5145 39.5692V40.2035L46.5367 41.448ZM45.497 36.7779L45.1763 37.3122C44.31 38.7562 43.9654 40.4497 44.1776 42.1004C43.0087 42.5253 41.9316 43.1436 40.9799 43.9336C39.4053 42.4079 37.401 41.3873 35.2178 41.0234L29.8184 40.1235V39.5692L32.3247 38.6293C36.5931 37.0288 39.4611 32.8904 39.4611 28.3315C39.4611 27.9999 39.4457 27.6638 39.4156 27.3326L39.4038 27.2042C40.1263 27.6367 40.9703 27.8859 41.8717 27.8859H41.882C41.876 28.0347 41.8717 28.1836 41.8717 28.3315C41.8717 31.5341 43.2883 34.5277 45.6103 36.5813C45.5732 36.6473 45.5357 36.7132 45.497 36.7779ZM47.7047 56.0481C48.0625 56.5158 48.2166 57.0945 48.1391 57.678C48.0615 58.2616 47.7613 58.7799 47.2937 59.1377C46.8263 59.4952 46.2476 59.6495 45.664 59.5722L45.2551 59.5178C43.3156 55.8248 40.7072 52.5154 37.5714 49.7658L37.6585 49.1107C37.7361 48.5271 38.0364 48.0087 38.5039 47.651C39.4688 46.9124 40.8549 47.0968 41.5935 48.0619L42.2468 48.9157L43.2535 48.5698C44.8069 48.0349 46.5219 48.5524 47.5207 49.8575C48.5193 51.1626 48.5706 52.9531 47.6485 54.313L47.0509 55.1941L47.7047 56.0481ZM13.4323 59.9858L9.07737 53.1424C8.45255 52.1605 8.12229 51.0187 8.12229 49.8403V49.751C8.12229 46.8324 10.156 44.3547 12.9914 43.7695C13.2751 48.8639 14.8482 53.7774 17.5842 58.0965L16.687 59.891L18.8432 60.9692L19.7152 59.2246H26.7017L27.2614 58.6648C27.6777 58.2485 28.2311 58.0193 28.8197 58.0193C30.0349 58.0193 31.0236 59.0081 31.0236 60.2233C31.0236 61.7876 29.8511 63.0974 28.2963 63.2702L21.7962 63.9924C21.4768 64.0279 21.1512 64.046 20.8285 64.046C17.8152 64.046 15.05 62.5282 13.4323 59.9858ZM18.5182 36.3734C15.1839 35.1236 12.9436 31.8965 12.9436 28.3312C12.9436 28.0721 12.9555 27.8096 12.979 27.5511L13.9724 16.6595C14.0507 15.8019 14.5064 15.0359 15.2226 14.5578C16.3362 13.8146 17.6324 13.4218 18.9714 13.4218C20.3089 13.4218 21.6043 13.814 22.7173 14.5559L24.997 16.0758L27.2768 14.5559C28.3897 13.814 29.685 13.4218 31.0227 13.4218C32.3616 13.4218 33.6578 13.8146 34.7714 14.5578C35.4877 15.0359 35.9433 15.8019 36.0215 16.6595L37.0148 27.5514C37.0385 27.8101 37.0504 28.0725 37.0504 28.3315C37.0504 31.891 34.8112 35.1223 31.4783 36.3722L27.4077 37.8986V42.1656L30.2087 42.6326C29.284 44.6205 27.2576 45.9659 24.997 45.9659C22.7364 45.9659 20.7099 44.6205 19.7851 42.6323L22.5863 42.1656V37.8986L18.5182 36.3734ZM17.3464 43.0386C18.5114 46.1898 21.5638 48.3766 24.997 48.3766C28.4301 48.3766 31.4823 46.19 32.6474 43.0389L34.8216 43.4013C36.1708 43.6261 37.4319 44.174 38.508 44.9843C37.9907 45.1401 37.4926 45.3893 37.0389 45.7365C36.268 46.3265 35.7155 47.1258 35.4357 48.0355L34.4228 47.2823L29.0283 55.6139C28.9591 55.6107 28.8898 55.6086 28.8199 55.6086C27.6583 55.6086 26.562 56.035 25.7098 56.814H19.6254C17.0591 52.7652 15.6034 48.148 15.3838 43.3656L17.3464 43.0386ZM27.8091 65.7499L28.5627 65.6661C31.3401 65.3576 33.4344 63.0177 33.4344 60.2231C33.4344 58.6312 32.6239 57.225 31.3942 56.3953L35.034 50.7737C38.7855 53.8097 41.7997 57.6805 43.8262 62.0641L28.3843 66.5014L27.8091 65.7499ZM42.0866 25.4752H41.8717C40.5426 25.4752 39.4611 24.3937 39.4611 23.0645C39.4611 21.7353 40.5426 20.6538 41.8717 20.6538H42.5264L42.0866 25.4752ZM24.997 2.57376C30.0814 2.57376 34.7823 4.79761 38.0026 8.69748C37.426 10.1463 37.0929 11.7173 37.0545 13.3602C36.7754 13.0585 36.4599 12.7866 36.1095 12.5528C34.5986 11.5442 32.8394 11.0111 31.0227 11.0111C29.2077 11.0111 27.45 11.5433 25.9396 12.5502L24.997 13.1785L24.0544 12.5502C22.5442 11.5433 20.7865 11.0111 18.9714 11.0111C17.1545 11.0111 15.3954 11.5442 13.8844 12.5526C12.5594 13.4369 11.7165 14.8539 11.5717 16.4406L11.4074 18.2432H10.533C9.65939 18.2432 8.84007 18.4779 8.13268 18.8858C8.4307 9.84059 15.8806 2.57376 24.997 2.57376ZM10.7478 25.4752H10.533C9.20378 25.4752 8.12229 24.3937 8.12229 23.0645C8.12229 21.7353 9.20378 20.6538 10.533 20.6538H11.1875L10.7478 25.4752ZM10.3291 64.046C8.44773 64.046 6.91695 62.5154 6.91695 60.6338V58.8228L5.42971 56.84C4.05698 55.0096 3.30093 52.7414 3.30093 50.4534C3.30093 48.5246 3.82541 46.6308 4.81785 44.977C6.23623 42.613 6.23623 39.676 4.81785 37.3121L4.49738 36.7778C3.71467 35.4735 3.30093 33.98 3.30093 32.4589C3.30093 30.5599 3.95423 28.6975 5.14043 27.2145L6.43346 25.5983C7.28443 26.97 8.80345 27.8859 10.533 27.8859H10.5432C10.537 28.0371 10.533 28.1892 10.533 28.3431C10.533 32.896 13.402 37.0302 17.6722 38.6307L20.1757 39.5694V40.1235L12.8318 41.3466C8.70612 42.0338 5.71161 45.5683 5.71161 49.751V49.8403C5.71161 51.4779 6.1722 53.0673 7.04351 54.4366L11.3984 61.2801C11.8004 61.9118 12.2587 62.4932 12.7633 63.021C12.1285 63.6654 11.2504 64.046 10.3291 64.046ZM25.3913 72.4511C24.705 72.3683 24.0477 72.1279 23.4702 71.7495L23.9866 67.8666L19.9721 67.3328C19.8239 67.0402 19.7303 66.7231 19.6913 66.399C20.0666 66.4368 20.446 66.4568 20.8287 66.4568C21.2403 66.4568 21.6558 66.4338 22.0631 66.3884L25.0115 66.0609L26.6033 68.1411L25.3913 72.4511ZM71.6837 51.0324L73.1699 61.4366C73.1968 61.6255 73.2105 61.8179 73.2105 62.0084C73.2105 63.5493 72.3543 64.9345 70.9761 65.6236L68.3892 66.9171V62.2803L71.4685 60.2275L70.1313 58.2217L68.3892 59.3832V49.5819H65.9785V69.6123L67.8201 70.533C68.1712 70.7085 68.3892 71.0614 68.3892 71.4537C68.3892 72.0214 67.9274 72.4832 67.3597 72.4832H45.3119C44.7442 72.4832 44.2824 72.0214 44.2824 71.4537C44.2824 71.0614 44.5004 70.7085 44.8515 70.533L46.6931 69.6123V62.5913L46.4276 61.9767C47.2681 61.8916 48.0713 61.5782 48.7589 61.0521C49.7378 60.303 50.3664 59.2176 50.5289 57.9958C50.6629 56.9889 50.467 55.9889 49.9748 55.1202C51.1262 52.983 50.9351 50.3523 49.4354 48.3924C47.9354 46.4324 45.4456 45.5603 43.0821 46.1136C42.9338 45.9673 42.7771 45.833 42.6136 45.7104C43.5573 44.9503 44.6549 44.4032 45.8522 44.1038L48.9715 43.324C50.1414 46.3608 53.0555 48.3766 56.3358 48.3766C59.5503 48.3766 62.4128 46.4408 63.6275 43.5057L65.7555 44.1441C68.8933 45.0854 71.2204 47.7893 71.6837 51.0324ZM62.8171 36.3722L58.7465 37.8986V42.0413L61.3019 42.8079C60.4085 44.7201 58.4854 45.9659 56.3358 45.9659C54.1584 45.9659 52.2139 44.6872 51.3361 42.7329L53.9251 42.0856V37.8986L49.8546 36.3722C46.5216 35.1224 44.2824 31.891 44.2824 28.3315C44.2824 28.0725 44.2943 27.8101 44.3178 27.5515L45.2824 16.976C45.3424 16.3193 45.8849 15.8201 46.5441 15.815L48.84 15.7974L49.8006 11.9769C49.9436 11.4084 50.4529 11.0113 51.0391 11.0113C51.5643 11.0113 52.0297 11.3263 52.2247 11.8139L53.0112 13.7802C53.8029 15.7591 55.6917 17.0378 57.8232 17.0378C59.5601 17.0378 61.1721 16.1749 62.1354 14.73L62.3266 14.4433C63.5511 15.3318 65.0424 15.8325 66.5812 15.8325H67.2884L68.3538 27.5527C68.3773 27.8098 68.389 28.0712 68.389 28.3315C68.3892 31.891 66.15 35.1224 62.8171 36.3722Z" fill="#444444"/>
<path d="M18.9704 24.2701C18.9704 23.6055 19.5111 23.0647 20.1757 23.0647C20.8403 23.0647 21.381 23.6055 21.381 24.2701V25.4754H23.7917V24.2701C23.7917 22.2763 22.1696 20.6541 20.1757 20.6541C18.1818 20.6541 16.5597 22.2763 16.5597 24.2701V25.4754H18.9704V24.2701Z" fill="#444444"/>
<path d="M28.6131 24.2701C28.6131 23.6055 29.1538 23.0647 29.8184 23.0647C30.483 23.0647 31.0237 23.6055 31.0237 24.2701V25.4754H33.4344V24.2701C33.4344 22.2763 31.8123 20.6541 29.8184 20.6541C27.8245 20.6541 26.2024 22.2763 26.2024 24.2701V25.4754H28.6131V24.2701Z" fill="#444444"/>
<path d="M32.157 29.5275L32.193 29.3836L29.8543 28.7988L29.8183 28.9427C29.2642 31.1592 27.2816 32.7071 24.997 32.7071C22.7124 32.7071 20.7298 31.1592 20.1756 28.9427L20.1396 28.7988L17.801 29.3836L17.837 29.5275C18.6598 32.8189 21.6041 35.1178 24.997 35.1178C28.3899 35.1178 31.3342 32.8189 32.157 29.5275Z" fill="#444444"/>
</svg>
