<svg width="117" height="70" viewBox="0 0 117 70" fill="none" xmlns="http://www.w3.org/2000/svg">
<path fill-rule="evenodd" clip-rule="evenodd" d="M20.072 34.6571L8.8993 32.8053L8.95136 32.4912L20.1241 34.3431L20.072 34.6571Z" fill="#026C82"/>
<path fill-rule="evenodd" clip-rule="evenodd" d="M51.7795 16.1242L21.0871 53.8769L20.8401 53.6761L51.5325 15.9233L51.7795 16.1242Z" fill="#026C82"/>
<path d="M49.0954 37.1021C49.0954 45.3498 42.4093 52.0358 34.1617 52.0358C25.9141 52.0358 19.228 45.3498 19.228 37.1021C19.228 28.8545 25.9141 22.1685 34.1617 22.1685C42.4093 22.1685 49.0954 28.8545 49.0954 37.1021Z" fill="#026C82"/>
<path d="M54.0959 49.1399H61.155V42.9125H63.2698V39.7988V36.6851H61.155V32.6078C61.155 31.5884 61.9815 30.7619 63.0009 30.7619C64.0204 30.7619 64.8469 31.5884 64.8469 32.6078V49.1399H71.906V32.9324C71.906 28.0143 67.9191 24.0273 63.0009 24.0273C58.0828 24.0273 54.0959 28.0143 54.0959 32.9324V49.1399Z" fill="#026C82"/>
<path d="M75.8319 49.1399H82.2543V42.9125V24.0273H75.8319V49.1399Z" fill="#026C82"/>
<path d="M86.5651 49.1399H92.9875V42.9125V42.0622H96.1159V34.9292H92.9875V33.7709C92.9875 32.8164 93.415 31.9618 94.0889 31.388C95.0162 30.5985 96.1159 29.6553 96.1159 28.4375C96.1159 26.0018 94.0397 23.9388 91.86 25.0256C88.7212 26.5906 86.5651 29.8325 86.5651 33.5781V49.1399Z" fill="#026C82"/>
<path d="M116.511 49.1402H110.088V39.8549C110.088 38.3236 108.847 37.0822 107.315 37.0822C105.784 37.0822 104.543 38.3236 104.543 39.8549V39.9195C104.543 41.5023 105.867 42.7631 107.448 42.6854C107.789 42.6686 108.124 42.5889 108.436 42.4504L109.019 42.1916V49.1402H107.281C102.208 49.1402 98.096 45.0278 98.096 39.9549V39.6334C98.096 34.738 102.065 30.7695 106.96 30.7695C112.235 30.7695 116.511 35.0455 116.511 40.3203V49.1402Z" fill="#026C82"/>
<path d="M32.9867 9.48582C32.9867 14.6217 28.8232 18.7851 23.6874 18.7851C18.5515 18.7851 14.3881 14.6217 14.3881 9.48582C14.3881 4.34996 18.5515 0.186523 23.6874 0.186523C28.8232 0.186523 32.9867 4.34996 32.9867 9.48582Z" fill="#026C82"/>
<path d="M24.8624 60.5141C24.8624 65.65 20.699 69.8134 15.5631 69.8134C10.4273 69.8134 6.26382 65.65 6.26382 60.5141C6.26382 55.3783 10.4273 51.2148 15.5631 51.2148C20.699 51.2148 24.8624 55.3783 24.8624 60.5141Z" fill="#026C82"/>
<path d="M56.9565 62.1557C56.9565 66.1996 53.6783 69.4779 49.6344 69.4779C45.5904 69.4779 42.3122 66.1996 42.3122 62.1557C42.3122 58.1117 45.5904 54.8335 49.6344 54.8335C53.6783 54.8335 56.9565 58.1117 56.9565 62.1557Z" fill="#026C82"/>
<path d="M59.699 13.3416C59.699 16.6905 56.9842 19.4054 53.6352 19.4054C50.2863 19.4054 47.5715 16.6905 47.5715 13.3416C47.5715 9.99268 50.2863 7.27783 53.6352 7.27783C56.9842 7.27783 59.699 9.99268 59.699 13.3416Z" fill="#026C82"/>
<path d="M9.367 31.5937C9.367 34.1803 7.27012 36.2772 4.6835 36.2772C2.09687 36.2772 0 34.1803 0 31.5937C0 29.007 2.09687 26.9102 4.6835 26.9102C7.27012 26.9102 9.367 29.007 9.367 31.5937Z" fill="#026C82"/>
<path d="M27.2887 42.8332V43.3064C27.2887 46.5786 28.941 50.0542 32.2133 50.0542H33.7725C38.4183 50.0542 42.1846 46.2843 42.1846 41.6384C42.1846 37.8208 39.6235 34.5362 36.0374 33.5391C35.4213 33.3678 34.9936 32.7617 35.1382 32.1388H41.1603V24.9746H29.8222L27.2887 37.5587C27.2887 37.5587 28.5448 36.9177 30.9968 37.2382C32.3565 37.4159 33.3222 38.0505 33.9126 38.5807C34.4266 39.0422 34.619 39.7324 34.619 40.4231C34.619 42.3792 32.8452 43.8563 30.9215 43.5021L27.2887 42.8332Z" fill="white"/>
<path d="M70.2112 51.2743V53.5506C70.2112 54.0456 70.0706 54.4293 69.7896 54.7017C69.5102 54.9725 69.1067 55.1078 68.579 55.1078C68.0634 55.1078 67.6667 54.9759 67.3891 54.7121C67.1132 54.4482 66.9752 54.0688 66.9752 53.5739V51.2743H68.0021V53.4937C68.0021 53.761 68.0522 53.955 68.1522 54.0757C68.2522 54.1965 68.3996 54.2568 68.5945 54.2568C68.8032 54.2568 68.954 54.1973 69.0472 54.0783C69.142 53.9576 69.1894 53.761 69.1894 53.4886V51.2743H70.2112Z" fill="#026C82"/>
<path d="M73.7498 52.4772C73.7498 52.8997 73.6248 53.2264 73.3747 53.4575C73.1264 53.6869 72.7729 53.8015 72.3142 53.8015H72.0271V55.0561H71.0053V51.2743H72.3142C72.7919 51.2743 73.1505 51.3787 73.3902 51.5873C73.6299 51.796 73.7498 52.0926 73.7498 52.4772ZM72.0271 52.9686H72.2133C72.3668 52.9686 72.4883 52.9255 72.578 52.8393C72.6694 52.7531 72.7151 52.6341 72.7151 52.4823C72.7151 52.2271 72.5737 52.0995 72.2909 52.0995H72.0271V52.9686Z" fill="#026C82"/>
<path d="M77.5626 53.085C77.5626 53.7162 77.3884 54.2025 77.0401 54.5439C76.6935 54.8854 76.2054 55.0561 75.576 55.0561H74.3525V51.2743H75.6614C76.2684 51.2743 76.7366 51.4295 77.066 51.7399C77.397 52.0503 77.5626 52.4987 77.5626 53.085ZM76.5021 53.1212C76.5021 52.7746 76.4331 52.5177 76.2951 52.3504C76.1589 52.1831 75.9511 52.0995 75.6717 52.0995H75.3742V54.218H75.6019C75.9123 54.218 76.1399 54.1283 76.2848 53.949C76.4296 53.7679 76.5021 53.492 76.5021 53.1212Z" fill="#026C82"/>
<path d="M80.5632 55.0561L80.3769 54.3473H79.1482L78.9568 55.0561H77.8342L79.0681 51.2588H80.4313L81.6806 55.0561H80.5632ZM80.1648 53.5093L80.0019 52.8884C79.9639 52.7505 79.9174 52.572 79.8622 52.353C79.8087 52.134 79.7734 51.9771 79.7561 51.8822C79.7406 51.9702 79.7096 52.115 79.663 52.3168C79.6182 52.5185 79.5173 52.916 79.3604 53.5093H80.1648Z" fill="#026C82"/>
<path d="M83.4422 52.6763L84.094 51.2743H85.2011L83.9569 53.5791V55.0561H82.9274V53.6101L81.6832 51.2743H82.7955L83.4422 52.6763Z" fill="#026C82"/>
<path d="M87.8551 55.0561H85.6098V51.2743H87.8551V52.0943H86.6316V52.6893H87.7646V53.5093H86.6316V54.2232H87.8551V55.0561Z" fill="#026C82"/>
<path d="M91.2437 52.6763L91.8955 51.2743H93.0026L91.7584 53.5791V55.0561H90.7289V53.6101L89.4847 51.2743H90.597L91.2437 52.6763Z" fill="#026C82"/>
<path d="M96.9499 53.16C96.9499 53.7964 96.7939 54.2801 96.4818 54.6112C96.1696 54.9423 95.7126 55.1078 95.1108 55.1078C94.5176 55.1078 94.0623 54.9414 93.745 54.6086C93.4294 54.2758 93.2717 53.7912 93.2717 53.1549C93.2717 52.5254 93.4286 52.0452 93.7424 51.7141C94.058 51.3813 94.5159 51.2148 95.116 51.2148C95.7178 51.2148 96.1739 51.3795 96.4843 51.7089C96.7947 52.0383 96.9499 52.522 96.9499 53.16ZM94.3477 53.16C94.3477 53.8912 94.6021 54.2568 95.1108 54.2568C95.3695 54.2568 95.5609 54.168 95.685 53.9904C95.8109 53.8128 95.8739 53.536 95.8739 53.16C95.8739 52.7824 95.8101 52.5039 95.6825 52.3245C95.5566 52.1435 95.3677 52.0529 95.116 52.0529C94.6038 52.0529 94.3477 52.422 94.3477 53.16Z" fill="#026C82"/>
<path d="M100.848 51.2743V53.5506C100.848 54.0456 100.708 54.4293 100.426 54.7017C100.147 54.9725 99.7436 55.1078 99.2159 55.1078C98.7003 55.1078 98.3037 54.9759 98.026 54.7121C97.7501 54.4482 97.6121 54.0688 97.6121 53.5739V51.2743H98.6391V53.4937C98.6391 53.761 98.6891 53.955 98.7891 54.0757C98.8891 54.1965 99.0366 54.2568 99.2314 54.2568C99.4401 54.2568 99.591 54.1973 99.6841 54.0783C99.7789 53.9576 99.8264 53.761 99.8264 53.4886V51.2743H100.848Z" fill="#026C82"/>
<path d="M102.664 53.68V55.0561H101.642V51.2743H102.881C103.909 51.2743 104.423 51.6468 104.423 52.3918C104.423 52.8298 104.209 53.1687 103.781 53.4084L104.883 55.0561H103.725L102.923 53.68H102.664ZM102.664 52.9117H102.855C103.212 52.9117 103.391 52.7539 103.391 52.4384C103.391 52.178 103.216 52.0478 102.866 52.0478H102.664V52.9117Z" fill="#026C82"/>
<path d="M107.7 53.9076C107.7 54.1421 107.641 54.3508 107.522 54.5336C107.403 54.7147 107.231 54.8561 107.007 54.9578C106.783 55.0578 106.52 55.1078 106.218 55.1078C105.966 55.1078 105.755 55.0906 105.584 55.0561C105.414 55.0199 105.236 54.9578 105.051 54.8699V53.9593C105.246 54.0594 105.449 54.1378 105.659 54.1947C105.87 54.2499 106.063 54.2775 106.239 54.2775C106.391 54.2775 106.502 54.2516 106.572 54.1999C106.643 54.1464 106.679 54.0783 106.679 53.9956C106.679 53.9438 106.664 53.899 106.635 53.861C106.607 53.8214 106.561 53.7817 106.497 53.7421C106.435 53.7024 106.268 53.6213 105.996 53.4989C105.749 53.3868 105.564 53.2782 105.44 53.173C105.317 53.0678 105.226 52.9471 105.165 52.8108C105.107 52.6746 105.077 52.5134 105.077 52.3271C105.077 51.9788 105.204 51.7072 105.458 51.5123C105.711 51.3174 106.059 51.22 106.503 51.22C106.894 51.22 107.293 51.3106 107.7 51.4916L107.387 52.2806C107.034 52.1185 106.729 52.0374 106.472 52.0374C106.339 52.0374 106.242 52.0607 106.182 52.1073C106.122 52.1538 106.091 52.2116 106.091 52.2806C106.091 52.3547 106.129 52.4211 106.205 52.4797C106.283 52.5384 106.491 52.6453 106.831 52.8005C107.157 52.9471 107.383 53.1049 107.509 53.2739C107.636 53.4411 107.7 53.6524 107.7 53.9076Z" fill="#026C82"/>
<path d="M110.53 55.0561H108.285V51.2743H110.53V52.0943H109.307V52.6893H110.44V53.5093H109.307V54.2232H110.53V55.0561Z" fill="#026C82"/>
<path d="M111.192 55.0561V51.2743H112.214V54.2309H113.67V55.0561H111.192Z" fill="#026C82"/>
<path d="M115.282 55.0561H114.276V51.2743H116.511V52.0943H115.282V52.816H116.415V53.636H115.282V55.0561Z" fill="#026C82"/>
</svg>
