<svg width="182" height="110" viewBox="0 0 182 110" fill="none" xmlns="http://www.w3.org/2000/svg">
<g id="Group 9969">
<g id="Group 9968">
<path id="Vector 332 (Stroke)" fill-rule="evenodd" clip-rule="evenodd" d="M31.3544 54.4908L13.9017 51.598L13.983 51.1074L31.4357 54.0002L31.3544 54.4908Z" fill="white"/>
<path id="Vector 333 (Stroke)" fill-rule="evenodd" clip-rule="evenodd" d="M80.8843 25.5412L32.9401 84.5145L32.5542 84.2007L80.4984 25.2275L80.8843 25.5412Z" fill="white"/>
<path id="Ellipse 117" d="M76.6912 58.3111C76.6912 71.1947 66.247 81.6389 53.3635 81.6389C40.4799 81.6389 30.0358 71.1947 30.0358 58.3111C30.0358 45.4276 40.4799 34.9834 53.3635 34.9834C66.247 34.9834 76.6912 45.4276 76.6912 58.3111Z" fill="white"/>
<path id="Vector 328" d="M84.5027 77.1138H95.5296V67.386H98.833V62.5221V57.6583H95.5296V51.2893C95.5296 49.6967 96.8206 48.4058 98.4131 48.4058C100.006 48.4058 101.297 49.6967 101.297 51.2893V77.1138H112.324V51.7962C112.324 44.1137 106.096 37.8857 98.4131 37.8857C90.7306 37.8857 84.5027 44.1137 84.5027 51.7962V77.1138Z" fill="white"/>
<path id="Vector 329" d="M118.456 77.1138H128.489V67.386V37.8857H118.456V77.1138Z" fill="white"/>
<path id="Vector 330" d="M135.223 77.1138H145.255V67.386V66.0578H150.142V54.9155H145.255V53.1061C145.255 51.6151 145.923 50.2801 146.976 49.3837C148.424 48.1504 150.142 46.6772 150.142 44.7748C150.142 40.9701 146.899 37.7475 143.494 39.4452C138.591 41.8897 135.223 46.954 135.223 52.8048V77.1138Z" fill="white"/>
<path id="Vector 331" d="M182 77.1147H171.968V62.6101C171.968 60.218 170.029 58.2789 167.636 58.2789C165.244 58.2789 163.305 60.218 163.305 62.6101V62.711C163.305 65.1835 165.374 67.1531 167.844 67.0316C168.376 67.0054 168.899 66.8809 169.387 66.6645L170.297 66.2602V77.1147H167.583C159.659 77.1147 153.235 70.6907 153.235 62.7663V62.2641C153.235 54.6171 159.434 48.418 167.081 48.418C175.321 48.418 182 55.0975 182 63.3371V77.1147Z" fill="white"/>
<path id="Ellipse 112" d="M51.528 15.1709C51.528 23.1935 45.0244 29.6972 37.0017 29.6972C28.979 29.6972 22.4753 23.1935 22.4753 15.1709C22.4753 7.14819 28.979 0.644531 37.0017 0.644531C45.0244 0.644531 51.528 7.14819 51.528 15.1709Z" fill="white"/>
<path id="Ellipse 113" d="M38.8373 94.8818C38.8373 102.904 32.3337 109.408 24.311 109.408C16.2883 109.408 9.78464 102.904 9.78464 94.8818C9.78464 86.8591 16.2883 80.3555 24.311 80.3555C32.3337 80.3555 38.8373 86.8591 38.8373 94.8818Z" fill="white"/>
<path id="Ellipse 114" d="M88.9711 97.4447C88.9711 103.762 83.8502 108.883 77.5332 108.883C71.2163 108.883 66.0953 103.762 66.0953 97.4447C66.0953 91.1278 71.2163 86.0068 77.5332 86.0068C83.8502 86.0068 88.9711 91.1278 88.9711 97.4447Z" fill="white"/>
<path id="Ellipse 115" d="M93.2551 21.1948C93.2551 26.4262 89.0143 30.667 83.783 30.667C78.5516 30.667 74.3108 26.4262 74.3108 21.1948C74.3108 15.9635 78.5516 11.7227 83.783 11.7227C89.0143 11.7227 93.2551 15.9635 93.2551 21.1948Z" fill="white"/>
<path id="Ellipse 116" d="M14.6321 49.7057C14.6321 53.7462 11.3566 57.0217 7.31604 57.0217C3.2755 57.0217 0 53.7462 0 49.7057C0 45.6652 3.2755 42.3896 7.31604 42.3896C11.3566 42.3896 14.6321 45.6652 14.6321 49.7057Z" fill="white"/>
<path id="Vector 334" d="M42.6274 67.2629V68.0021C42.6274 73.1136 45.2085 78.5428 50.32 78.5428H52.7556C60.0129 78.5428 65.8961 72.6538 65.8961 65.3966C65.8961 59.4331 61.8954 54.3022 56.2936 52.7446C55.3312 52.4771 54.6631 51.5304 54.889 50.5573H64.296V39.3662H46.5849L42.6274 59.0236C42.6274 59.0236 44.5896 58.0224 48.4197 58.523C50.5438 58.8006 52.0522 59.792 52.9745 60.6201C53.7775 61.341 54.078 62.4191 54.078 63.4982C54.078 66.5538 51.3071 68.8611 48.3021 68.3078L42.6274 67.2629Z" fill="#026C82" fill-opacity="0.784314"/>
</g>
<g id="updaye yourself">
<path d="M109.676 80.4484V84.0042C109.676 84.7773 109.457 85.3767 109.017 85.8023C108.581 86.2252 107.951 86.4367 107.126 86.4367C106.321 86.4367 105.701 86.2306 105.268 85.8184C104.837 85.4063 104.621 84.8137 104.621 84.0406V80.4484H106.225V83.9153C106.225 84.3328 106.303 84.6359 106.46 84.8244C106.616 85.013 106.846 85.1073 107.151 85.1073C107.477 85.1073 107.712 85.0144 107.858 84.8285C108.006 84.6399 108.08 84.3328 108.08 83.9072V80.4484H109.676Z" fill="white"/>
<path d="M115.204 82.3273C115.204 82.9873 115.008 83.4978 114.618 83.8587C114.23 84.217 113.678 84.3961 112.961 84.3961H112.513V86.3559H110.917V80.4484H112.961C113.707 80.4484 114.268 80.6114 114.642 80.9373C115.016 81.2633 115.204 81.7266 115.204 82.3273ZM112.513 83.095H112.804C113.043 83.095 113.233 83.0277 113.373 82.893C113.516 82.7583 113.587 82.5724 113.587 82.3354C113.587 81.9367 113.367 81.7374 112.925 81.7374H112.513V83.095Z" fill="white"/>
<path d="M121.16 83.2769C121.16 84.2628 120.888 85.0224 120.343 85.5558C119.802 86.0892 119.04 86.3559 118.056 86.3559H116.145V80.4484H118.19C119.138 80.4484 119.869 80.6908 120.384 81.1757C120.901 81.6606 121.16 82.361 121.16 83.2769ZM119.503 83.3334C119.503 82.792 119.395 82.3906 119.18 82.1293C118.967 81.868 118.642 81.7374 118.206 81.7374H117.741V85.0467H118.097C118.582 85.0467 118.937 84.9066 119.164 84.6264C119.39 84.3436 119.503 83.9126 119.503 83.3334Z" fill="white"/>
<path d="M125.847 86.3559L125.556 85.2487H123.637L123.338 86.3559H121.584L123.511 80.4242H125.641L127.592 86.3559H125.847ZM125.225 83.9395L124.97 82.9698C124.911 82.7543 124.838 82.4755 124.752 82.1334C124.668 81.7913 124.613 81.5461 124.586 81.398C124.562 81.5353 124.513 81.7616 124.441 82.0768C124.371 82.392 124.213 83.0129 123.968 83.9395H125.225Z" fill="white"/>
<path d="M130.344 82.6384L131.362 80.4484H133.092L131.148 84.0486V86.3559H129.54V84.0971L127.596 80.4484H129.334L130.344 82.6384Z" fill="white"/>
<path d="M137.237 86.3559H133.73V80.4484H137.237V81.7293H135.326V82.6586H137.096V83.9395H135.326V85.0548H137.237V86.3559Z" fill="white"/>
<path d="M142.531 82.6384L143.549 80.4484H145.278L143.335 84.0486V86.3559H141.727V84.0971L139.783 80.4484H141.521L142.531 82.6384Z" fill="white"/>
<path d="M151.444 83.394C151.444 84.3881 151.201 85.1437 150.713 85.6609C150.225 86.1781 149.512 86.4367 148.571 86.4367C147.645 86.4367 146.934 86.1767 146.438 85.6568C145.945 85.1369 145.699 84.38 145.699 83.386C145.699 82.4027 145.944 81.6525 146.434 81.1353C146.927 80.6154 147.642 80.3555 148.58 80.3555C149.52 80.3555 150.232 80.6127 150.717 81.1272C151.202 81.6417 151.444 82.3974 151.444 83.394ZM147.379 83.394C147.379 84.5362 147.777 85.1073 148.571 85.1073C148.976 85.1073 149.275 84.9686 149.468 84.6911C149.665 84.4136 149.763 83.9813 149.763 83.394C149.763 82.8041 149.664 82.3691 149.464 82.0889C149.268 81.8061 148.973 81.6646 148.58 81.6646C147.779 81.6646 147.379 82.2411 147.379 83.394Z" fill="white"/>
<path d="M157.534 80.4484V84.0042C157.534 84.7773 157.314 85.3767 156.875 85.8023C156.439 86.2252 155.808 86.4367 154.984 86.4367C154.179 86.4367 153.559 86.2306 153.125 85.8184C152.694 85.4063 152.479 84.8137 152.479 84.0406V80.4484H154.083V83.9153C154.083 84.3328 154.161 84.6359 154.317 84.8244C154.474 85.013 154.704 85.1073 155.008 85.1073C155.334 85.1073 155.57 85.0144 155.715 84.8285C155.864 84.6399 155.938 84.3328 155.938 83.9072V80.4484H157.534Z" fill="white"/>
<path d="M160.37 84.2062V86.3559H158.774V80.4484H160.71C162.315 80.4484 163.118 81.0303 163.118 82.194C163.118 82.8782 162.784 83.4075 162.116 83.782L163.837 86.3559H162.027L160.774 84.2062H160.37ZM160.37 83.0061H160.669C161.227 83.0061 161.506 82.7597 161.506 82.2667C161.506 81.8599 161.232 81.6566 160.685 81.6566H160.37V83.0061Z" fill="white"/>
<path d="M168.237 84.5618C168.237 84.9282 168.144 85.2541 167.959 85.5396C167.773 85.8225 167.505 86.0434 167.154 86.2023C166.804 86.3585 166.393 86.4367 165.922 86.4367C165.529 86.4367 165.199 86.4097 164.932 86.3559C164.665 86.2993 164.388 86.2023 164.1 86.0649V84.6426C164.404 84.7989 164.721 84.9214 165.049 85.0103C165.378 85.0965 165.68 85.1396 165.954 85.1396C166.191 85.1396 166.365 85.0992 166.476 85.0184C166.586 84.9349 166.641 84.8285 166.641 84.6992C166.641 84.6184 166.618 84.5483 166.573 84.4891C166.53 84.4271 166.458 84.3652 166.358 84.3032C166.261 84.2412 166 84.1146 165.575 83.9234C165.189 83.7483 164.9 83.5786 164.706 83.4143C164.515 83.2499 164.372 83.0614 164.278 82.8486C164.186 82.6357 164.14 82.3839 164.14 82.093C164.14 81.5488 164.338 81.1245 164.734 80.8201C165.13 80.5157 165.674 80.3636 166.367 80.3636C166.978 80.3636 167.602 80.505 168.237 80.7878L167.748 82.0202C167.196 81.767 166.719 81.6404 166.318 81.6404C166.111 81.6404 165.96 81.6768 165.866 81.7495C165.771 81.8222 165.724 81.9125 165.724 82.0202C165.724 82.1361 165.783 82.2398 165.902 82.3314C166.023 82.4229 166.349 82.59 166.88 82.8324C167.389 83.0614 167.742 83.3078 167.938 83.5718C168.138 83.8331 168.237 84.1631 168.237 84.5618Z" fill="white"/>
<path d="M172.658 86.3559H169.151V80.4484H172.658V81.7293H170.747V82.6586H172.516V83.9395H170.747V85.0548H172.658V86.3559Z" fill="white"/>
<path d="M173.692 86.3559V80.4484H175.288V85.0669H177.563V86.3559H173.692Z" fill="white"/>
<path d="M180.081 86.3559H178.509V80.4484H182V81.7293H180.081V82.8566H181.85V84.1375H180.081V86.3559Z" fill="white"/>
</g>
</g>
</svg>
