<svg width="50" height="50" viewBox="0 0 50 50" fill="none" xmlns="http://www.w3.org/2000/svg">
<circle cx="24.9766" cy="25.1173" r="24.4991" fill="#4CC85B"/>
<path d="M24.9789 13.9053H24.9741C18.7904 13.9053 13.7646 18.933 13.7646 25.1171C13.7646 27.2847 14.3831 29.3154 15.4562 31.0337L14.5439 33.7532C14.127 34.9959 15.2994 36.1853 16.548 35.7861L19.4374 34.8625C21.0746 35.7981 22.9645 36.329 24.9789 36.329C31.1627 36.329 36.1884 31.3 36.1884 25.1171C36.1884 18.9343 31.1627 13.9053 24.9789 13.9053Z" fill="#4CC85B" stroke="white" stroke-width="3"/>
<path d="M30.6311 29.1201C30.3968 29.7817 29.4669 30.3304 28.7251 30.4906C28.2177 30.5987 27.5548 30.6849 25.3235 29.7598C22.4695 28.5774 20.6315 25.6772 20.4882 25.489C20.3511 25.3009 19.335 23.9533 19.335 22.5597C19.335 21.166 20.0427 20.4874 20.328 20.1961C20.5623 19.9569 20.9496 19.8477 21.321 19.8477C21.4412 19.8477 21.5493 19.8537 21.6464 19.8586C21.9317 19.8707 22.0749 19.8877 22.2631 20.3381C22.4974 20.9026 23.068 22.2963 23.1359 22.4395C23.2051 22.5828 23.2743 22.777 23.1772 22.9652C23.0862 23.1594 23.006 23.2456 22.8628 23.4107C22.7195 23.5758 22.5836 23.7021 22.4403 23.8793C22.3092 24.0335 22.1611 24.1986 22.3262 24.4839C22.4913 24.7631 23.0619 25.6942 23.902 26.442C24.9861 27.4071 25.865 27.7155 26.1794 27.8466C26.4137 27.9437 26.6929 27.9206 26.8641 27.7385C27.0814 27.5042 27.3497 27.1158 27.6228 26.7334C27.8171 26.459 28.0623 26.425 28.3196 26.5221C28.5819 26.6132 29.9695 27.2991 30.2547 27.4411C30.54 27.5844 30.7282 27.6524 30.7974 27.7725C30.8654 27.8927 30.8654 28.4572 30.6311 29.1201Z" fill="white"/>
</svg>
